<?xml version="1.0" encoding="UTF-8" standalone="no"?>
<svg
   xmlns:dc="http://purl.org/dc/elements/1.1/"
   xmlns:cc="http://creativecommons.org/ns#"
   xmlns:rdf="http://www.w3.org/1999/02/22-rdf-syntax-ns#"
   xmlns:svg="http://www.w3.org/2000/svg"
   xmlns="http://www.w3.org/2000/svg"
   xmlns:sodipodi="http://sodipodi.sourceforge.net/DTD/sodipodi-0.dtd"
   xmlns:inkscape="http://www.inkscape.org/namespaces/inkscape"
   width="200mm"
   height="200mm"
   viewBox="0 0 755.90553 755.90552"
   version="1.1"
   id="svg8"
   inkscape:version="1.0 (4035a4f, 2020-05-01)"
   sodipodi:docname="scrabble ordered by count with numbers.svg">
  <defs
     id="defs2">
    <rect
       x="0"
       y="0"
       width="755.90552"
       height="755.90552"
       id="rect351" />
    <rect
       x="0"
       y="0"
       width="755.90552"
       height="755.90552"
       id="rect335" />
    <rect
       id="rect388"
       height="755.90552"
       width="755.90552"
       y="0"
       x="0" />
  </defs>
  <sodipodi:namedview
     id="base"
     pagecolor="#ffffff"
     bordercolor="#666666"
     borderopacity="1.0"
     inkscape:pageopacity="0.0"
     inkscape:pageshadow="2"
     inkscape:zoom="0.85899585"
     inkscape:cx="565.66873"
     inkscape:cy="270.79707"
     inkscape:document-units="in"
     inkscape:current-layer="layer1"
     inkscape:document-rotation="0"
     showgrid="true"
     inkscape:window-width="1617"
     inkscape:window-height="943"
     inkscape:window-x="0"
     inkscape:window-y="23"
     inkscape:window-maximized="0">
    <inkscape:grid
       type="xygrid"
       id="grid331"
       units="mm"
       spacingx="75.590552"
       spacingy="75.590552" />
  </sodipodi:namedview>
  <metadata
     id="metadata5">
    <rdf:RDF>
      <cc:Work
         rdf:about="">
        <dc:format>image/svg+xml</dc:format>
        <dc:type
           rdf:resource="http://purl.org/dc/dcmitype/StillImage" />
        <dc:title></dc:title>
      </cc:Work>
    </rdf:RDF>
  </metadata>
  <g
     inkscape:label="Layer 1"
     inkscape:groupmode="layer"
     id="layer1">
    <text
       xml:space="preserve"
       id="text333"
       style="line-height:1.25;font-family:'Hiragino Maru Gothic Pro';font-size:40.00000038999999674px;-inkscape-font-specification:'Hiragino Maru Gothic Pro';white-space:pre;shape-inside:url(#rect335);fill:#000000;fill-opacity:0;" />
    <g
       style="font-style:normal;font-variant:normal;font-weight:normal;font-stretch:normal;font-size:45.3543px;line-height:75.5906px;font-family:'Hiragino Maru Gothic Pro';-inkscape-font-specification:'Hiragino Maru Gothic Pro, Normal';font-variant-ligatures:normal;font-variant-caps:normal;font-variant-numeric:normal;font-variant-east-asian:normal;text-align:center;letter-spacing:30.5px;white-space:pre;shape-inside:url(#rect351)"
       id="text349"
       aria-label="せなわあまもられねへみむめろぬ２かてのきくこはゆりるおけえひほや３たとすによさそちふ４◯ーいうしんつ">
      <path
         id="path457"
         d="m 47.90199,31.944594 c 2.630549,-0.04535 5.261098,-0.136063 7.800939,-0.136063 1.224567,0 1.723464,-0.680314 1.723464,-1.814172 0,-1.043149 -0.498897,-1.678109 -1.768818,-1.678109 -2.539841,0.04535 -5.261099,0.09071 -7.710231,0.181417 0.04535,-1.496692 0.04535,-2.857321 0.04535,-4.21795 0,-1.360629 0,-2.675904 0,-3.991178 0,-0.997795 -0.861732,-1.587401 -1.904881,-1.587401 -1.043148,0 -1.814172,0.589606 -1.814172,1.632755 0,1.723463 0.04536,3.537635 0.04536,5.397162 0,0.95244 0,1.90488 -0.04536,2.857321 -2.585195,0.09071 -4.988973,0.226771 -6.939208,0.31748 -2.948029,0.136063 -5.80535,0.31748 -8.571963,0.498897 0.04536,-2.766612 0.04536,-5.533225 0.04536,-8.209128 0,-1.043149 -0.725669,-1.632755 -1.904881,-1.67811 -1.043149,0 -1.859526,0.589606 -1.859526,1.67811 0,2.494486 0,5.623933 -0.04536,8.4359 -2.539841,0.226771 -5.034327,0.408188 -7.483459,0.589606 -0.952441,0.04535 -1.542047,0.725668 -1.542047,1.678109 0,0.04535 0,0.09071 0,0.136063 0.04535,0.907086 0.634961,1.632755 1.587401,1.632755 0.09071,0 0.181417,0 0.272126,0 2.403778,-0.181418 4.85291,-0.408189 7.165979,-0.544252 0,1.814172 -0.04535,3.537635 -0.04535,5.215745 0,0.408188 0,0.861731 0,1.224566 0,7.80094 0.408189,10.0233 1.632755,11.928181 1.632755,2.857321 5.442516,4.036533 12.608496,4.036533 4.580784,0 9.252277,-0.408189 12.517787,-1.043149 1.043149,-0.181417 1.678109,-0.861732 1.678109,-1.950235 0,-0.136063 0,-0.272126 -0.04535,-0.408189 -0.136063,-0.95244 -0.771023,-1.496692 -1.723464,-1.496692 -0.181417,0 -0.408188,0 -0.63496,0.04536 -3.084092,0.63496 -7.528814,1.088503 -11.928181,1.088503 -5.759997,0 -8.299837,-0.589606 -9.433695,-2.675904 -0.680314,-1.133858 -0.907086,-3.038738 -0.907086,-11.202512 0,-1.723464 0,-3.356219 0,-4.988974 2.94803,-0.226771 5.850705,-0.362834 8.75338,-0.544251 2.131652,-0.136063 4.399367,-0.181417 6.803145,-0.272126 -0.04535,2.902675 -0.181417,5.533225 -0.498897,7.256688 -0.362834,1.859527 -1.043149,2.539841 -2.403778,2.539841 -1.451338,0 -3.174801,-0.771023 -4.308659,-1.678109 -0.362834,-0.31748 -0.771023,-0.453543 -1.179211,-0.453543 -0.544252,0 -1.088504,0.272126 -1.451338,0.725669 -0.226772,0.31748 -0.362834,0.725669 -0.362834,1.088503 0,0.544252 0.226771,1.043149 0.63496,1.405983 2.086298,1.723464 4.807556,2.585196 7.029917,2.585196 3.220155,0 4.898264,-1.904881 5.533224,-5.306454 0.408189,-2.131652 0.634961,-5.17039 0.634961,-8.299837 z" />
      <path
         id="path459"
         d="m 120.94432,24.007591 c -0.27212,-0.09071 -0.54425,-0.136063 -0.81637,-0.136063 -0.68032,0 -1.26992,0.317481 -1.67811,0.952441 -0.18142,0.31748 -0.27213,0.680314 -0.27213,1.043149 0,0.589606 0.27213,1.133857 0.86173,1.360629 3.40158,1.360629 6.80315,3.129447 9.47905,4.988973 0.36284,0.226771 0.72567,0.362834 1.13386,0.362834 0.58961,0 1.17921,-0.31748 1.54205,-0.861731 0.18141,-0.317481 0.27212,-0.680315 0.27212,-1.043149 0,-0.589606 -0.27212,-1.269921 -0.90708,-1.67811 -2.53984,-1.723463 -6.16819,-3.673698 -9.61512,-4.988973 z m -15.55652,4.988973 c 2.72126,-0.226771 5.39716,-0.453543 7.75558,-0.816377 1.08851,-0.181417 1.63276,-0.861732 1.63276,-1.723463 0,-0.09071 0,-0.181418 0,-0.272126 -0.18142,-0.952441 -0.72567,-1.496692 -1.63276,-1.496692 -0.13606,0 -0.27212,0 -0.40818,0.04535 -1.90488,0.272126 -4.03654,0.453543 -6.2589,0.63496 0.4989,-1.950235 0.95244,-3.90047 1.36063,-5.759996 0.0454,-0.226771 0.0454,-0.408189 0.0454,-0.589606 0,-0.907086 -0.58961,-1.405983 -1.58741,-1.5874 -0.18141,-0.04536 -0.31748,-0.04536 -0.45354,-0.04536 -0.90708,0 -1.5874,0.498898 -1.67811,1.496692 -0.45354,2.31307 -0.99779,4.580785 -1.63275,6.803145 -1.95024,0.09071 -3.991181,0.136063 -5.941416,0.136063 -0.680314,0 -1.315274,0 -1.950235,0 -1.043148,0 -1.678109,0.680315 -1.678109,1.768818 0,1.088503 0.544252,1.768818 1.587401,1.768818 0.589606,0 1.179212,0 1.723463,0 1.768818,0 3.537636,-0.04535 5.215746,-0.136063 -1.859527,6.122831 -4.898266,12.608496 -8.027712,17.914949 -0.272126,0.453543 -0.408189,0.95244 -0.408189,1.360629 0,0.589606 0.272126,1.133858 0.861732,1.496692 0.453543,0.272126 0.861731,0.408189 1.26992,0.408189 0.63496,0 1.224566,-0.408189 1.678109,-1.179212 3.40157,-5.941414 6.3496,-13.107393 8.52661,-20.228019 z m 17.27999,15.420463 c -0.36284,-3.220155 -0.54425,-6.394957 -0.54425,-10.295426 0,-1.269921 -0.77103,-1.859527 -1.85953,-1.859527 -0.99779,0 -1.76882,0.544252 -1.76882,1.859527 0,2.948029 0.22677,6.531019 0.4989,9.07086 -1.85953,-0.498897 -3.71905,-0.771023 -5.62393,-0.771023 -5.62394,0 -9.47905,3.129447 -9.47905,7.483459 0,4.263305 3.7644,7.256689 9.43369,7.256689 6.16819,0 9.34299,-2.31307 9.56976,-7.256689 0,-0.408188 0,-0.997794 -0.0907,-1.542046 1.90488,1.088503 4.12724,2.94803 5.89606,4.716848 0.40819,0.362834 0.90709,0.589605 1.36063,0.589605 0.45354,0 0.90708,-0.226771 1.31527,-0.63496 0.31748,-0.362834 0.4989,-0.816377 0.4989,-1.26992 0,-0.498897 -0.22677,-1.043149 -0.68031,-1.496692 -2.26772,-2.267715 -5.48787,-4.399367 -8.52661,-5.850705 z m -3.40157,2.403778 c 0.0907,0.907086 0.0907,1.542046 0.0907,2.267715 0,3.220155 -2.08629,4.671493 -5.94141,4.671493 -3.71905,0 -5.94141,-1.405983 -5.94141,-3.90047 0,-2.494486 2.31307,-4.21795 5.98676,-4.21795 1.95024,0 3.99118,0.362835 5.80536,1.179212 z" />
      <path
         id="path461"
         d="m 181.01533,29.314045 c 0.5896,-0.589606 0.86173,-1.224567 0.86173,-1.814172 0,-0.861732 -0.63496,-1.587401 -1.67811,-1.542047 0.0907,-2.131652 0.18142,-4.308658 0.31748,-6.485665 0,-0.04535 0,-0.04535 0,-0.09071 0,-0.997795 -0.68031,-1.632755 -1.72346,-1.632755 -1.22457,0 -1.81417,0.498897 -1.85953,1.5874 -0.13606,2.358424 -0.22677,4.580785 -0.27212,6.8485 -2.04095,0.136063 -4.39937,0.362834 -6.71244,0.589606 -0.90709,0.09071 -1.49669,0.725669 -1.49669,1.768817 0,0.04536 0,0.09071 0,0.136063 0.0453,0.907086 0.63496,1.587401 1.49669,1.587401 0.0907,0 0.13606,0 0.22677,0 2.04094,-0.181417 4.26331,-0.498897 6.39496,-0.63496 -0.0454,2.22236 -0.13607,4.85291 -0.13607,6.939208 -3.03873,3.174801 -5.94141,6.712436 -8.02771,9.615112 -0.31748,0.453543 -0.45354,0.907086 -0.45354,1.360629 0,0.589606 0.22677,1.088503 0.63496,1.451337 0.40819,0.317481 0.81638,0.453543 1.22457,0.453543 0.54425,0 1.04315,-0.272125 1.40598,-0.816377 1.26992,-1.859526 2.72126,-3.809761 3.53764,-4.807556 0.54425,-0.680314 1.26992,-1.768818 1.81417,-2.721258 -0.18142,1.632755 -0.18142,3.038738 -0.18142,3.855116 -0.0454,1.315274 -0.0454,3.084092 -0.0454,5.034327 0,1.950235 0,4.081887 0.0454,6.213539 0,0.997795 0.77102,1.723464 1.76882,1.723464 1.17921,0 1.85952,-0.680315 1.85952,-1.723464 -0.0453,-4.399367 -0.13606,-8.617317 -0.13606,-12.880621 0,-1.723464 0,-3.492281 0.0454,-5.306454 1.36062,-1.315274 2.6759,-2.53984 4.03653,-3.582989 3.49228,-2.721258 7.07527,-4.308659 10.93039,-4.308659 5.12503,0 8.70802,3.673698 8.70802,9.025506 0,4.716847 -1.54205,7.528814 -4.71685,9.433695 -2.44913,1.451337 -6.53102,2.267715 -10.06865,2.313069 -1.17921,0 -1.85953,0.771023 -1.85953,1.904881 0.0454,1.133857 0.63496,1.995589 1.90488,1.995589 4.26331,-0.04535 8.75338,-0.95244 11.88283,-2.766612 4.67149,-2.721258 6.75779,-6.984563 6.75779,-12.744559 0,-7.256688 -4.80756,-12.65385 -12.33637,-12.65385 -4.30866,0 -8.11842,1.5874 -12.1096,4.53543 -0.5896,0.408189 -1.04315,0.725669 -1.67811,1.315275 -0.5896,0.589606 -0.95244,0.997794 -1.40598,1.451337 0.0453,-0.680314 0.0907,-1.451337 0.13606,-2.086298 0.0454,-0.31748 0.0454,-0.589605 0.0454,-0.907086 0,-0.272125 0,-0.544251 0,-0.771023 z" />
      <path
         id="path463"
         d="m 260.04442,52.35403 c 0.18142,0.408188 0.36284,0.861731 0.54426,1.224566 0.27212,0.498897 0.72566,0.771023 1.26992,0.771023 0.27212,0 0.5896,-0.09071 0.90708,-0.226772 0.68032,-0.362834 0.9978,-0.907086 0.9978,-1.542046 0,-0.31748 -0.0907,-0.63496 -0.22678,-0.907086 -0.31748,-0.680314 -0.54425,-1.26992 -0.77102,-1.814172 3.12945,-3.26551 6.12283,-8.798734 7.61952,-14.422668 5.30646,0.680315 8.11842,3.945825 8.11842,8.481255 0,5.48787 -4.67149,9.70582 -12.74455,10.114009 -0.90709,0.04535 -1.5874,0.63496 -1.5874,1.678109 0,0 0,0.04535 0,0.09071 0.0453,0.95244 0.72566,1.723463 1.81417,1.723463 0.0453,0 0.0453,0 0.0907,0 9.75117,-0.362834 16.23684,-6.077476 16.23684,-13.424873 0,-6.077477 -3.76441,-10.522198 -11.15716,-11.656056 0.13606,-0.589606 0.27212,-1.179211 0.36283,-1.723463 0,-0.09071 0,-0.181417 0,-0.272126 0,-0.771023 -0.54425,-1.315275 -1.45134,-1.405983 -0.13606,-0.04536 -0.27212,-0.04536 -0.36283,-0.04536 -0.81638,0 -1.36063,0.408189 -1.49669,1.133858 -0.0907,0.544252 -0.22677,1.224566 -0.40819,1.995589 -3.31086,0 -5.89606,0.453543 -7.75559,0.952441 0,-0.408189 0,-0.816378 0,-1.224567 0,-1.723463 0.0454,-3.401572 0.0907,-5.079681 6.21354,-0.226772 11.97354,-0.634961 17.00787,-1.315275 1.04314,-0.136063 1.5874,-0.725669 1.5874,-1.632755 0,-0.09071 0,-0.181417 0,-0.31748 -0.13607,-0.95244 -0.72567,-1.496692 -1.63276,-1.496692 -0.0907,0 -0.22677,0 -0.31748,0 -5.03433,0.771023 -10.56755,1.179212 -16.3729,1.405983 0.0907,-1.542046 0.18142,-2.948029 0.31748,-4.263304 0,-0.09071 0,-0.181417 0,-0.226771 0,-0.861732 -0.45354,-1.360629 -1.54205,-1.451338 -0.0907,0 -0.13606,0 -0.22677,0 -0.99779,0 -1.63275,0.589606 -1.72346,1.451338 -0.13607,1.405983 -0.22677,3.038738 -0.27213,4.626138 -2.04094,0.04535 -4.03653,0.04535 -5.98677,0.04535 -0.77102,0 -1.5874,0 -2.35842,0 -0.99779,0 -1.5874,0.680314 -1.5874,1.632754 0,1.088504 0.54425,1.723464 1.72346,1.768818 2.67591,0 5.48787,-0.04535 8.02771,-0.09071 -0.0453,1.768817 -0.0907,3.582989 -0.0907,5.397161 0,0.680315 0,1.315275 0.0453,1.950235 -6.3496,2.811967 -10.88503,8.209129 -10.88503,14.241251 0,4.444722 2.63055,7.029917 6.16818,7.029917 2.40378,0 4.94362,-0.725669 8.02771,-3.174801 z m -1.17921,-3.356219 c -2.44913,2.177007 -4.71685,2.993384 -6.39495,2.993384 -1.85953,0 -3.17481,-1.224566 -3.17481,-3.719052 0,-3.764407 2.63055,-8.027712 7.61953,-10.703616 0.22677,4.172596 0.90708,8.254483 1.95023,11.429284 z m 2.67591,-2.675903 c -0.81638,-2.94803 -1.31528,-6.440311 -1.40599,-10.204718 1.26992,-0.498898 3.71906,-1.088503 7.02992,-1.088503 -1.17921,4.399367 -3.31086,8.4359 -5.62393,11.293221 z" />
      <path
         id="path465"
         d="m 343.15542,43.237815 c -0.18142,-2.449132 -0.36283,-4.716847 -0.4989,-7.165979 4.58079,-0.181418 8.66268,-0.544252 12.88063,-1.133858 0.86173,-0.136063 1.45133,-0.725669 1.45133,-1.632755 0,-0.09071 0,-0.181417 0,-0.31748 -0.13606,-0.907086 -0.68031,-1.496692 -1.54204,-1.496692 -0.0907,0 -0.18142,0 -0.27213,0 -4.21795,0.589606 -8.25448,0.95244 -12.65385,1.179212 -0.0907,-2.086298 -0.18142,-3.855116 -0.18142,-5.623933 4.85291,-0.181418 9.16157,-0.544252 13.51559,-1.133858 0.90708,-0.136063 1.40598,-0.771023 1.40598,-1.542046 0,-0.136063 0,-0.272126 -0.0454,-0.408189 -0.13606,-0.907086 -0.63496,-1.451338 -1.54204,-1.451338 -0.13606,0 -0.27213,0 -0.45354,0.04536 -4.12725,0.544251 -8.25449,0.861731 -12.88063,0.997794 -0.0453,-1.315274 -0.0453,-2.630549 -0.0453,-4.081887 0,-1.224566 -0.54425,-1.723463 -1.67811,-1.723463 -1.22457,0 -1.81417,0.544251 -1.81417,1.632755 0,1.496692 0,2.948029 0,4.21795 -1.45134,0.04535 -2.90268,0.04535 -4.35401,0.04535 -3.94583,0 -7.61953,-0.09071 -10.02331,-0.226772 -0.0453,0 -0.0453,0 -0.0907,0 -0.9978,0 -1.5874,0.634961 -1.67811,1.542047 0,0.09071 0,0.181417 0,0.226771 0,0.861732 0.45354,1.632755 1.49669,1.723464 2.35842,0.136063 6.07748,0.226771 10.5222,0.226771 1.45133,0 2.81196,0 4.21795,-0.04535 0.0454,1.995589 0.0907,3.90047 0.18141,5.669288 -1.76881,0.09071 -3.53763,0.09071 -5.30645,0.09071 -3.08409,0 -5.44252,-0.09071 -8.70803,-0.272126 -0.0454,0 -0.0454,0 -0.0907,0 -0.95244,0 -1.54205,0.634961 -1.63276,1.632755 0,0.09071 0,0.136063 0,0.181417 0,0.907086 0.58961,1.587401 1.54205,1.67811 3.40157,0.226771 5.8507,0.226771 9.0255,0.226771 1.81418,0 3.53764,0 5.35181,-0.09071 0.0907,2.086298 0.22677,4.127242 0.40819,6.21354 -1.67811,-0.31748 -3.31086,-0.498898 -4.80756,-0.498898 -7.48346,0 -11.15715,3.084093 -11.15715,7.48346 0,4.399367 4.03653,7.302043 10.15936,7.302043 6.16818,0 9.56976,-2.177007 9.56976,-7.80094 0,-0.589606 0,-1.315275 -0.0454,-1.950235 0.72567,0.31748 1.45134,0.680314 2.0863,0.95244 3.12945,1.587401 6.48567,3.628344 9.25228,6.168185 0.40819,0.362835 0.86173,0.544252 1.36063,0.544252 0.5896,0 1.17921,-0.272126 1.5874,-0.816378 0.27212,-0.362834 0.40819,-0.771023 0.40819,-1.179211 0,-0.544252 -0.27213,-1.133858 -0.77103,-1.632755 -3.1748,-2.766613 -7.25669,-5.034328 -10.88503,-6.576374 -1.04315,-0.453543 -2.04094,-0.816377 -3.26551,-1.179212 z m -3.31086,2.766613 c 0.0453,0.63496 0.0453,1.26992 0.0453,1.90488 0.0454,4.127242 -1.99559,5.306453 -6.25889,5.306453 -3.6737,0 -6.30425,-1.315274 -6.30425,-3.764407 0,-2.630549 2.17701,-4.21795 7.25669,-4.21795 1.67811,0 3.53763,0.272126 5.2611,0.771024 z" />
      <path
         id="path467"
         d="m 410.43777,36.842859 c 0.36283,-2.449133 0.81637,-5.125036 1.31527,-7.619523 1.08851,0.04535 2.22236,0.04535 3.31087,0.04535 2.63055,0 5.26109,-0.136063 7.84629,-0.362834 0.99779,-0.09071 1.40598,-0.816378 1.40598,-1.814172 0,-0.09071 0,-0.136063 0,-0.181417 -0.0453,-0.907086 -0.68031,-1.542047 -1.63275,-1.542047 -0.0454,0 -0.13606,0 -0.18142,0 -2.85732,0.272126 -5.57858,0.362835 -8.16377,0.362835 -0.63496,0 -1.26992,0 -1.85953,0 0.36284,-1.904881 0.77102,-3.855116 1.17921,-5.714642 0.0454,-0.136063 0.0454,-0.31748 0.0454,-0.453543 0,-0.771023 -0.40819,-1.496692 -1.4967,-1.632755 -0.18141,-0.04535 -0.31748,-0.04535 -0.45354,-0.04535 -0.90708,0 -1.49669,0.498897 -1.67811,1.496692 -0.36283,1.995589 -0.81637,4.127241 -1.17921,6.168185 -3.26551,-0.181418 -5.89606,-0.498898 -8.11842,-0.816378 -0.0907,0 -0.22677,0 -0.31748,0 -0.81638,0 -1.40598,0.544252 -1.54205,1.405983 -0.0454,0.136063 -0.0454,0.272126 -0.0454,0.408189 0,0.816378 0.4989,1.542046 1.31528,1.632755 2.53984,0.408189 5.21574,0.725669 8.07306,0.907086 -0.4989,2.449132 -0.95244,5.079682 -1.31527,7.574168 -2.72126,-0.226771 -5.2611,-0.544251 -7.48346,-0.95244 -0.13607,-0.04535 -0.27213,-0.04535 -0.36284,-0.04535 -0.81638,0 -1.45134,0.544251 -1.5874,1.496692 -0.0454,0.136063 -0.0454,0.226771 -0.0454,0.362834 0,0.861732 0.54425,1.542046 1.40598,1.723464 2.31307,0.453543 4.94362,0.771023 7.52881,0.997794 -0.31748,2.403778 -0.45354,4.21795 -0.45354,5.896059 0,3.809762 1.13386,6.304248 3.31087,8.027712 2.26771,1.814172 5.57857,2.630549 9.75117,2.630549 8.66267,0 14.33196,-4.127241 14.33196,-11.474638 0,-2.993384 -1.31528,-6.304248 -3.53764,-8.980152 -0.45354,-0.544251 -0.99779,-0.816377 -1.54204,-0.816377 -0.36284,0 -0.72567,0.09071 -1.08851,0.31748 -0.49889,0.362834 -0.81637,0.907086 -0.81637,1.451338 0,0.362834 0.13606,0.771023 0.40819,1.088503 1.81417,2.131652 2.76661,4.626139 2.76661,7.120625 0,4.762202 -3.99118,7.664877 -10.65826,7.664877 -3.1748,0 -5.62394,-0.589606 -7.21134,-1.90488 -1.36063,-1.133858 -2.08629,-2.857321 -2.08629,-4.988974 0,-1.768817 0.13606,-3.537635 0.49889,-5.850705 1.49669,0.04536 2.94803,0.09071 4.35402,0.09071 2.72125,0 5.26109,-0.09071 7.39275,-0.31748 1.17921,-0.136063 1.67811,-0.816377 1.67811,-1.768818 0,-0.09071 0,-0.181417 0,-0.272126 -0.0907,-0.95244 -0.58961,-1.542046 -1.63276,-1.542046 -0.0907,0 -0.22677,0 -0.31748,0 -2.0863,0.226772 -4.44472,0.31748 -7.02992,0.31748 -1.31527,0 -2.6759,-0.04535 -4.08188,-0.09071 z" />
      <path
         id="path469"
         d="m 483.88827,18.973264 c -0.18142,-0.04535 -0.31748,-0.04535 -0.4989,-0.04535 -0.77102,0 -1.45134,0.544251 -1.67811,1.405983 -0.0453,0.226771 -0.0907,0.408189 -0.0907,0.63496 0,0.771023 0.45355,1.496692 1.31528,1.723464 5.12503,1.360629 12.56314,2.630549 18.14172,2.993383 0.0454,0 0.13606,0 0.18142,0 1.0885,0 1.90488,-0.680314 2.04094,-1.768817 0,-0.09071 0,-0.136063 0,-0.226772 0,-0.95244 -0.81638,-1.768818 -1.81417,-1.859526 -5.53323,-0.453543 -12.88062,-1.542046 -17.59747,-2.857321 z m -4.12724,21.72471 c 0.31748,-0.997794 0.49889,-1.859526 0.63496,-2.902675 0.18141,-1.451338 0.95244,-5.079682 1.76881,-8.526609 0.0454,-0.181417 0.0454,-0.362834 0.0454,-0.544251 0,-0.861732 -0.58961,-1.405984 -1.54205,-1.542047 -0.13606,-0.04535 -0.27212,-0.04535 -0.40819,-0.04535 -0.90708,0 -1.54204,0.589606 -1.72346,1.542046 -1.04315,4.399368 -1.99559,9.388341 -2.49449,14.105188 -0.0453,0.181417 -0.0453,0.408189 -0.0453,0.544252 0,1.315274 0.58961,1.995589 1.63275,2.177006 0.22678,0.04536 0.45355,0.09071 0.68032,0.09071 0.81638,0 1.49669,-0.408189 2.31307,-1.224566 3.85511,-3.945825 9.0255,-6.21354 15.2844,-6.21354 5.75999,0 8.79873,3.129447 8.79873,6.576374 0,5.034328 -5.2611,8.11842 -13.60629,8.11842 -3.22015,0 -6.93921,-0.498897 -9.29763,-1.179212 -0.22677,-0.04535 -0.40819,-0.09071 -0.63496,-0.09071 -0.77102,0 -1.40598,0.453543 -1.67811,1.360629 -0.0453,0.181417 -0.0453,0.362834 -0.0453,0.544251 0,0.952441 0.5896,1.587401 1.45133,1.859527 2.53984,0.816377 6.48567,1.315274 10.25008,1.315274 11.02109,0 17.4614,-4.490075 17.4614,-11.701409 0,-5.941414 -4.7622,-10.295427 -12.51779,-10.295427 -6.75779,0 -12.15495,2.539841 -16.10077,6.168185 z" />
      <path
         id="path471"
         d="m 560.33218,28.769793 c 0.45355,-0.408189 0.68032,-0.907086 0.68032,-1.405983 0,-0.771023 -0.63496,-1.405984 -1.67811,-1.405984 -0.0454,0 -0.0907,0 -0.13606,0 0.0907,-2.22236 0.18141,-4.308658 0.31748,-6.485665 0,-0.04535 0,-0.09071 0,-0.09071 0,-1.133858 -0.68032,-1.67811 -1.72347,-1.67811 -0.0453,0 -0.0907,0 -0.13606,0 -1.0885,0 -1.76882,0.589606 -1.76882,1.723464 -0.0907,2.358424 -0.18142,4.626139 -0.22677,6.757791 -2.22236,0.181417 -4.62614,0.31748 -6.93921,0.544251 -0.81638,0.09071 -1.40598,0.861732 -1.40598,1.859527 0,0.09071 0,0.136063 0,0.226771 0.0453,0.861732 0.72567,1.496692 1.63275,1.496692 0.0454,0 0.13607,0 0.18142,0 2.22236,-0.226771 4.49008,-0.408188 6.44031,-0.589606 -0.0907,2.539841 -0.13606,4.807556 -0.18142,7.211334 -2.94803,3.174801 -5.75999,6.712437 -8.11842,9.705821 -0.31748,0.408188 -0.49889,0.907086 -0.49889,1.360629 0,0.498897 0.22677,0.997794 0.63496,1.360629 0.36283,0.31748 0.81637,0.498897 1.22456,0.498897 0.54425,0 1.04315,-0.226771 1.49669,-0.816377 1.17922,-1.587401 2.67591,-3.401573 3.99118,-5.261099 0.45355,-0.63496 0.90709,-1.224566 1.40599,-2.222361 -0.18142,1.814172 -0.22677,3.174801 -0.22677,4.308659 0,0.771023 0,1.678109 0,2.675903 0,2.403778 0.0453,5.215745 0.0453,7.80094 0,0.997795 0.86173,1.587401 1.81417,1.587401 0.0454,0 0.0454,0 0.0907,0 1.13386,0 1.81417,-0.63496 1.81417,-1.632755 -0.0453,-4.354013 -0.13606,-8.571963 -0.13606,-12.789913 0,-1.768818 0,-3.492281 0.0453,-5.261099 1.99559,-2.222361 4.30866,-4.580784 6.03213,-6.032122 3.67369,-3.038738 6.30424,-4.490076 8.93479,-4.490076 2.22236,0 3.40158,1.26992 3.40158,3.537636 0,1.678109 -0.31748,3.855115 -0.95244,7.120625 -0.95244,4.807556 -1.31528,8.073066 -1.31528,10.204718 0,4.354013 2.53984,6.349602 5.98677,6.349602 3.62834,0 6.21354,-1.995589 7.98236,-7.528814 0.0907,-0.272126 0.13606,-0.544252 0.13606,-0.771023 0,-0.725669 -0.40819,-1.315275 -1.17921,-1.587401 -0.22677,-0.09071 -0.4989,-0.136063 -0.72567,-0.136063 -0.72567,0 -1.31528,0.453543 -1.5874,1.269921 -1.26992,3.764407 -2.5852,4.898264 -4.35402,4.898264 -1.54204,0 -2.44913,-0.771023 -2.44913,-2.993384 0,-1.768817 0.45355,-4.85291 1.40599,-9.887237 0.63496,-3.356219 0.90708,-5.306454 0.90708,-7.664877 0,-3.719053 -2.49449,-6.304248 -6.71244,-6.304248 -3.31086,0 -6.44031,1.542046 -10.29542,4.580784 -1.26992,0.997795 -2.72126,2.358424 -3.94583,3.58299 -0.49889,0.498897 -1.04314,1.179212 -1.45133,1.723464 0.13606,-0.771024 0.18141,-1.315275 0.22677,-2.040944 0,-0.544252 0,-1.360629 0.0453,-2.177006 z" />
      <path
         id="path473"
         d="m 635.91437,28.905856 c 0.45354,-0.498897 0.68031,-1.043149 0.68031,-1.542046 0,-0.816378 -0.58961,-1.542047 -1.5874,-1.496692 0.0907,-2.131652 0.13606,-4.263305 0.27213,-6.394957 0,-0.04535 0,-0.136063 0,-0.181417 0,-0.95244 -0.68032,-1.496692 -1.67811,-1.542046 -0.0454,0 -0.0907,0 -0.13607,0 -1.04315,0 -1.72346,0.544251 -1.76881,1.632755 -0.13607,2.358423 -0.18142,4.626138 -0.27213,6.75779 -2.04094,0.136063 -4.58078,0.362835 -6.75779,0.589606 -0.90709,0.04536 -1.45134,0.771024 -1.45134,1.768818 0,0.04535 0,0.09071 0,0.136063 0.0454,0.907086 0.63496,1.587401 1.54205,1.587401 0.0453,0 0.13606,0 0.18142,0 1.95023,-0.226772 4.44472,-0.453543 6.39495,-0.589606 -0.0453,2.585195 -0.0907,4.988973 -0.13606,7.483459 -3.1748,3.401573 -6.12283,6.8485 -8.11842,9.388341 -0.31748,0.408189 -0.4989,0.907086 -0.4989,1.360629 0,0.453543 0.18142,0.95244 0.58961,1.360629 0.36283,0.362834 0.81637,0.544252 1.26992,0.544252 0.4989,0 0.99779,-0.226772 1.36063,-0.680315 1.22456,-1.542046 2.76661,-3.58299 4.08188,-5.215745 0.45355,-0.63496 1.13386,-1.542046 1.4967,-2.22236 -0.13607,0.997794 -0.18142,1.995589 -0.18142,2.948029 0,2.267715 -0.0454,5.079682 -0.0454,7.982357 0,1.179212 0,2.403778 0,3.58299 0,0.997795 0.86174,1.678109 1.81418,1.678109 1.04315,0 1.85952,-0.63496 1.85952,-1.678109 -0.0453,-6.122831 -0.0907,-11.792118 -0.0907,-17.552115 7.71024,-8.073065 11.74677,-9.932592 15.51118,-9.932592 4.49007,0 6.9392,4.081888 6.9392,10.794324 0,1.904881 -0.13606,3.764407 -0.40819,5.397162 -2.31306,-1.360629 -5.03432,-2.222361 -7.61952,-2.222361 -4.85291,0 -8.25448,2.993384 -8.25448,6.939208 0,3.945825 3.58299,6.757791 8.39054,6.757791 4.39937,0 7.75559,-1.768817 9.70583,-5.80535 1.0885,0.95244 2.177,2.131652 3.08409,3.265509 0.31748,0.453543 0.81638,0.680315 1.31527,0.680315 0.45355,0 0.90709,-0.181417 1.22457,-0.589606 0.31748,-0.362834 0.4989,-0.816377 0.4989,-1.315275 0,-0.453543 -0.13607,-0.907086 -0.4989,-1.26992 -1.17921,-1.451338 -2.85732,-2.993384 -4.49008,-4.263305 0.4989,-1.995589 0.77103,-4.762201 0.77103,-7.302042 0,-9.479049 -3.94583,-14.604085 -10.47685,-14.604085 -4.44472,0 -8.66267,2.131652 -14.64944,7.937003 -0.31748,0.272125 -0.63496,0.725668 -1.0885,1.315274 0.0907,-0.861731 0.13606,-1.5874 0.13606,-2.177006 0,-0.453543 0,-1.360629 0.0454,-2.267715 z m 20.09195,19.275578 c -1.13386,3.492281 -3.76441,4.85291 -6.93921,4.85291 -2.72125,0 -4.71684,-1.496692 -4.71684,-3.446927 0,-2.040943 1.81417,-3.719052 4.71684,-3.719052 2.5852,0 4.76221,0.725668 6.93921,2.313069 z" />
      <path
         id="path475"
         d="m 714.1271,24.007591 c -2.13165,0 -3.71905,0.907086 -5.48787,3.673699 -2.85732,4.53543 -6.3496,9.297632 -9.47905,12.789913 -0.36284,0.408188 -0.54425,0.95244 -0.54425,1.451337 0,0.589606 0.22677,1.133858 0.68031,1.542047 0.4989,0.408188 0.9978,0.63496 1.49669,0.63496 0.58961,0 1.17922,-0.272126 1.67811,-0.907086 2.81197,-3.356218 6.16819,-8.345192 8.79874,-12.608496 1.26992,-2.040944 1.90488,-2.449132 2.85732,-2.449132 0.86173,0 1.5874,0.544251 2.72126,2.086298 5.2611,7.165979 12.15495,14.785502 19.36628,21.08975 0.45355,0.408189 0.9978,0.589606 1.54205,0.589606 0.58961,0 1.17921,-0.226772 1.5874,-0.771023 0.36283,-0.453543 0.54425,-0.997795 0.54425,-1.496692 0,-0.680315 -0.27212,-1.315275 -0.77102,-1.768818 -7.39275,-6.394957 -14.42267,-13.560936 -19.68377,-20.590853 -1.85952,-2.539841 -3.40157,-3.26551 -5.30645,-3.26551 z" />
      <path
         id="path477"
         d="m 34.025345,109.34937 c -9.569758,0 -15.012274,4.80755 -15.012274,11.83747 0,5.12503 2.993384,7.71023 5.896059,7.71023 2.675904,0 4.988974,-1.36063 7.302043,-5.71464 1.496692,-2.76662 2.993384,-6.44031 4.308659,-10.25007 3.900469,0.49889 8.299837,1.99558 11.610701,3.99117 -1.405984,6.21354 -4.53543,9.9326 -9.751175,12.06425 -0.680315,0.31748 -1.133858,0.95244 -1.133858,1.72346 0,0.27213 0.04536,0.54425 0.181418,0.81638 0.272125,0.63496 0.816377,0.95244 1.496691,0.95244 0.317481,0 0.634961,-0.0907 0.997795,-0.22677 6.032122,-2.49449 9.705821,-6.80315 11.38393,-13.37952 1.950235,1.26992 3.58299,2.63055 5.125036,4.17259 0.408189,0.40819 0.861732,0.58961 1.360629,0.58961 0.498897,0 0.997795,-0.22677 1.360629,-0.72567 0.31748,-0.31748 0.453543,-0.77102 0.453543,-1.26992 0,-0.58961 -0.272126,-1.26992 -0.861732,-1.76882 -1.950235,-1.85952 -4.081887,-3.44692 -6.485665,-4.89826 0.453543,-2.94803 0.680315,-6.53102 0.680315,-10.5222 0,-0.36283 0,-0.72567 0,-1.0885 0,-1.13386 -0.816378,-1.72347 -1.904881,-1.72347 -0.997795,0 -1.768818,0.63496 -1.768818,1.81418 0,3.71905 -0.136063,6.9392 -0.453543,9.70582 -3.537635,-1.72347 -7.619522,-3.12945 -11.202512,-3.53764 0.997794,-3.31086 1.90488,-6.57637 2.494486,-9.20692 0.136063,-0.634962 0.226772,-1.224568 0.226772,-1.723466 0,-0.997794 -0.272126,-1.678109 -0.771023,-2.22236 -0.680315,-0.725669 -1.632755,-1.133858 -2.811967,-1.133858 -0.09071,0 -0.226771,0 -0.362834,0 -3.90047,0.09071 -8.209129,0.181417 -12.200307,0.226772 -0.952441,0.04535 -1.67811,0.680314 -1.67811,1.814172 0,0.04535 0,0.04535 0,0.09071 0.04536,0.997795 0.816378,1.587401 1.814172,1.587401 3.492282,0 7.528814,-0.181417 10.794324,-0.31748 0.04535,0 0.09071,0 0.136063,0 0.725669,0 1.088503,0.272125 1.088503,0.907086 0,0.136063 0,0.272125 -0.04535,0.453545 -0.498897,2.85732 -1.26992,5.98677 -2.267715,9.25228 z m -1.133858,3.35621 c -0.997794,2.99339 -2.22236,5.85071 -3.446927,8.20913 -1.678109,3.22016 -2.993383,4.12724 -4.308658,4.12724 -1.360629,0 -2.585195,-1.26992 -2.585195,-4.12724 0,-4.71685 3.764407,-8.20913 10.34078,-8.20913 z" />
      <path
         id="path479"
         d="m 133.91743,106.31063 c -2.26772,-3.12945 -5.48787,-6.2589 -8.57197,-8.526612 -0.36283,-0.272125 -0.77102,-0.408188 -1.17921,-0.408188 -0.4989,0 -1.04315,0.226771 -1.40598,0.63496 -0.36284,0.408189 -0.54425,0.861732 -0.54425,1.315275 0,0.453543 0.18141,0.907085 0.54425,1.224565 3.08409,2.31307 5.89606,5.17039 8.02771,8.07307 0.40819,0.54425 0.99779,0.77102 1.54205,0.77102 0.45354,0 0.90708,-0.13606 1.22456,-0.40819 0.4989,-0.40819 0.72567,-0.99779 0.72567,-1.54205 0,-0.40818 -0.13606,-0.81637 -0.36283,-1.13385 z m -30.16061,16.59967 c -1.04315,1.0885 -1.5874,2.26772 -1.5874,3.85512 0,3.7644 3.35621,5.62393 11.74676,5.62393 5.80535,0 9.5244,-0.63496 12.15495,-1.90488 2.90268,-1.40598 4.35401,-3.6737 4.35401,-7.43811 0,-2.40377 -0.90708,-5.21574 -1.99558,-7.4381 -0.36284,-0.77102 -0.9978,-1.17921 -1.76882,-1.17921 -0.27213,0 -0.4989,0.0453 -0.77103,0.13606 -0.77102,0.22677 -1.17921,0.90709 -1.17921,1.5874 0,0.27213 0.0907,0.58961 0.22677,0.86173 0.95244,1.85953 1.67811,4.1726 1.67811,5.76 0,2.31307 -0.95244,3.6737 -2.63055,4.53543 -1.95023,0.99779 -5.57857,1.49669 -10.11401,1.49669 -5.80535,0 -8.16377,-0.72567 -8.16377,-3.1748 0,-1.17921 0.54425,-2.40378 1.90488,-4.39937 1.40598,-1.99559 2.13165,-4.08188 2.13165,-6.66708 0,-1.5874 -0.27212,-3.31086 -0.99779,-4.62614 0,-2.44913 0,-4.89826 0.0453,-7.16598 3.31087,-0.18142 6.53102,-0.4989 9.20693,-0.86173 0.77102,-0.13606 1.31527,-0.68031 1.31527,-1.49669 0,-0.0907 0,-0.18142 0,-0.31748 -0.18142,-0.952443 -0.72567,-1.45134 -1.49669,-1.45134 -0.0907,0 -0.18142,0 -0.27213,0 -2.58519,0.362834 -5.62393,0.63496 -8.66267,0.816377 0.0454,-1.496691 0.0907,-2.948029 0.0907,-4.490075 0,-0.997795 -0.54425,-1.632755 -1.81417,-1.632755 -1.0885,0 -1.72347,0.544251 -1.76882,1.768818 0,1.678109 0,3.129446 -0.0453,4.53543 -2.17701,0.09071 -4.26331,0.136063 -6.213543,0.136063 -0.680315,0 -1.405983,0 -2.040944,-0.04536 -0.816377,0 -1.451337,0.725667 -1.451337,1.678107 0,1.04315 0.680314,1.63276 1.542046,1.63276 0.816377,0.0453 1.678109,0.0453 2.539841,0.0453 1.768817,0 3.628347,-0.0453 5.578577,-0.18142 -0.0453,1.4967 -0.0453,3.22016 -0.0453,4.80756 -0.4989,-0.22677 -1.26992,-0.40819 -2.0863,-0.40819 -4.21795,0 -7.710231,3.6737 -7.710231,9.16157 0,4.53543 2.630549,6.93921 5.442511,7.07527 0.0454,0 0.13607,0 0.18142,0 0.90709,0 1.67811,-0.31748 2.49449,-0.90708 z m 2.53984,-8.34519 c 0,2.85732 -1.85953,5.8507 -4.21795,5.8507 -1.63276,0 -3.265513,-1.36062 -3.265513,-4.21795 0,-3.53763 2.040943,-5.8507 4.444723,-5.8507 2.177,0 3.03874,1.72346 3.03874,4.21795 z" />
      <path
         id="path481"
         d="m 186.32355,124.36164 c 0.31748,0.45354 0.58961,0.86173 0.95244,1.31527 0.27213,0.31748 0.68032,0.4989 1.13386,0.4989 0.45354,0 0.90709,-0.18142 1.22457,-0.45354 0.45354,-0.36284 0.63496,-0.86173 0.63496,-1.31528 0,-0.45354 -0.13606,-0.90708 -0.40819,-1.26992 -0.40819,-0.63496 -0.86173,-1.22456 -1.22457,-1.85952 1.90488,-2.90268 3.71906,-6.75779 5.07968,-10.56756 0.68032,-1.90488 1.26993,-4.03653 1.81418,-6.25889 1.95023,0.31748 3.6737,0.95244 5.17039,1.99559 2.76661,1.95023 4.58078,5.2611 4.58078,9.34299 0,6.8485 -5.62393,11.51999 -14.19589,12.60849 -1.08851,0.13606 -1.63276,0.86173 -1.63276,1.72347 0,0.13606 0,0.27212 0.0453,0.40818 0.13607,0.90709 0.81638,1.4967 1.85953,1.4967 0.13606,0 0.27213,0 0.45354,-0.0454 10.56756,-1.31527 17.27999,-7.30204 17.27999,-16.23684 0,-5.57858 -2.44913,-9.61511 -6.3496,-12.1096 -1.81417,-1.22456 -3.90047,-1.99559 -6.48566,-2.40377 0.36283,-1.814177 0.68031,-3.582995 0.90708,-5.215749 0.0454,-0.136063 0.0454,-0.272126 0.0454,-0.408189 0,-0.907086 -0.58961,-1.587401 -1.5874,-1.678109 -0.13607,-0.04536 -0.27213,-0.04536 -0.40819,-0.04536 -0.90709,0 -1.4967,0.498898 -1.63276,1.587401 -0.22677,1.723463 -0.54425,3.58299 -0.90708,5.442521 -4.35402,0 -8.02772,0.95244 -11.06645,2.58519 -0.40819,-2.17701 -0.77103,-4.399367 -1.04315,-6.576373 -0.0907,-0.997795 -0.68032,-1.496692 -1.54205,-1.496692 -0.13606,0 -0.27212,0 -0.45354,0.04535 -0.90709,0.136063 -1.40599,0.816377 -1.40599,1.723463 0,0.09071 0,0.181418 0,0.317481 0.36284,2.675907 0.86174,5.306457 1.45134,7.846297 -4.80755,3.58299 -7.66487,8.66267 -7.66487,14.24125 0,5.8507 3.08409,9.11621 7.16598,9.11621 2.58519,0 5.48787,-0.99779 8.20912,-4.35401 z m -1.95023,-2.99338 c -2.22236,2.90267 -4.39937,3.7644 -6.12283,3.7644 -2.13165,0 -3.76441,-2.26771 -3.76441,-5.80535 0,-3.76441 1.76882,-7.66488 5.03433,-10.38613 1.17921,4.58078 2.94803,8.88944 4.85291,12.42708 z m 2.17701,-3.03874 c -1.67811,-3.40158 -3.12945,-7.43811 -4.12725,-11.65606 2.81197,-1.5874 6.2589,-2.53984 9.56976,-2.53984 -0.45354,1.95024 -0.95244,3.76441 -1.54204,5.48787 -1.08851,3.12945 -2.44914,6.25889 -3.90047,8.70803 z" />
      <path
         id="path483"
         d="m 260.54509,112.34275 c 1.67811,-0.95244 3.26551,-1.99559 4.71685,-3.08409 3.62834,-2.67591 7.66488,-5.89606 11.06645,-9.25228 0.63496,-0.589607 0.95244,-1.315276 0.95244,-2.040944 0,-0.362835 -0.0907,-0.771024 -0.27213,-1.088504 -0.49889,-0.725669 -1.17921,-1.133857 -2.44913,-1.133857 -0.0907,0 -0.22677,0 -0.36283,0 -2.85732,0.226771 -6.2589,0.362834 -9.66047,0.453543 -3.31086,0.09071 -6.75779,0.09071 -9.88724,0.09071 -0.0454,0 -0.0454,0 -0.0907,0 -1.04314,0 -1.6781,0.725669 -1.6781,1.859527 0,1.043149 0.72566,1.678109 1.81417,1.723463 0.4989,0 0.99779,0 1.49669,0 5.44252,0 11.47464,-0.226771 15.7833,-0.63496 -6.16819,5.805354 -15.32976,12.835264 -23.08534,17.914954 -0.63496,0.36283 -0.95244,0.99779 -0.95244,1.63275 0,0.36283 0.0907,0.72567 0.31748,1.04315 0.36283,0.54425 0.95244,0.86173 1.5874,0.86173 0.40819,0 0.81638,-0.13606 1.26992,-0.40819 2.99338,-1.95023 5.80535,-3.53763 8.57196,-4.67149 3.71905,-1.54205 7.25669,-2.26772 10.88503,-2.26772 5.76,0 9.20693,2.49449 9.20693,6.8485 0,4.71685 -4.98898,8.07307 -13.74236,8.07307 -3.08409,0 -6.62172,-0.4989 -8.88944,-1.22457 -0.22677,-0.0454 -0.45354,-0.0907 -0.63496,-0.0907 -0.90709,0 -1.5874,0.4989 -1.81417,1.45134 -0.0454,0.18142 -0.0454,0.36284 -0.0454,0.54425 0,0.86174 0.58961,1.54205 1.4967,1.85953 2.63054,0.81638 6.53101,1.22457 10.114,1.22457 11.0211,0 17.41606,-4.53543 17.41606,-11.74677 0,-6.07747 -4.44473,-10.11401 -12.47244,-10.11401 -3.31086,0 -7.16598,0.81638 -10.52219,2.44913 z" />
      <path
         id="path485"
         d="m 336.30869,125.17802 c 0.22677,0.36283 0.4989,0.72567 0.72567,1.04315 0.22677,0.36283 0.68032,0.54425 1.13386,0.54425 0.45354,0 0.86173,-0.13607 1.26992,-0.4989 0.36283,-0.31748 0.54425,-0.77102 0.54425,-1.26992 0,-0.40819 -0.13606,-0.81638 -0.36283,-1.17921 -0.40819,-0.63496 -0.72567,-1.22457 -1.08851,-1.85953 3.40158,-5.35181 5.62394,-11.29322 7.07528,-17.27999 7.30204,0.31748 11.47463,5.12504 11.47463,11.74677 0,1.31527 -0.13606,2.81196 -0.45354,4.08188 -2.22236,-1.49669 -4.85291,-2.35842 -7.39275,-2.35842 -4.62614,0 -7.66488,2.90267 -7.66488,6.71244 0,3.99117 3.26551,6.62172 7.66488,6.62172 3.6737,0 6.98456,-1.6781 8.79873,-5.17039 0.77103,0.81638 1.54205,1.99559 2.13166,2.81197 0.31748,0.45354 0.77102,0.63496 1.22456,0.63496 0.45354,0 0.86173,-0.18142 1.22457,-0.4989 0.40819,-0.36283 0.63496,-0.86173 0.63496,-1.36063 0,-0.40818 -0.13606,-0.81637 -0.36284,-1.17921 -0.81637,-1.22456 -1.99559,-2.49448 -3.22015,-3.71905 0.54425,-1.67811 1.04315,-4.12724 1.04315,-6.3496 0,-8.39055 -5.07968,-14.46802 -14.33196,-15.10298 0.36283,-1.723468 0.72567,-3.401577 0.99779,-5.306458 0.0454,-0.181417 0.0454,-0.31748 0.0454,-0.453543 0,-0.907086 -0.45355,-1.451338 -1.45134,-1.632755 -0.18142,-0.04535 -0.31748,-0.04535 -0.4989,-0.04535 -0.90708,0 -1.49669,0.589606 -1.63275,1.542046 -0.27213,1.950235 -0.58961,3.945824 -1.04315,5.805354 -3.99118,0.31748 -7.57417,1.5874 -10.61291,3.35622 -0.54425,-2.35843 -0.90708,-4.62614 -1.17921,-6.939213 -0.13606,-0.997795 -0.63496,-1.587401 -1.54205,-1.587401 -0.13606,0 -0.27212,0 -0.40819,0.04536 -0.86173,0.136063 -1.40598,0.771023 -1.40598,1.723463 0,0.09071 0,0.181417 0,0.31748 0.36284,2.766616 0.95244,5.669286 1.5874,8.481256 -4.30866,3.62834 -6.75779,8.9348 -6.75779,13.74235 0,5.76 2.90268,8.75338 6.53102,8.75338 2.5852,0 5.03433,-1.22456 7.30204,-4.17259 z m 5.85071,-20.50015 c -1.22457,4.98898 -3.22016,10.20472 -5.44252,14.05984 -1.45134,-3.22016 -2.90267,-7.16598 -3.76441,-10.70362 2.53985,-1.63275 5.80536,-2.99338 9.20693,-3.35622 z m -13.06204,21.0444 c -1.5874,0 -3.12945,-1.85953 -3.12945,-5.12504 0,-3.53763 1.67811,-7.34739 4.26331,-10.06865 1.04315,3.71905 2.53984,7.89165 4.30866,11.38393 -1.95024,2.99338 -3.71906,3.80976 -5.44252,3.80976 z m 26.35085,-1.81417 c -1.17921,2.53984 -3.22016,4.35401 -6.2589,4.35401 -2.99338,0 -4.39936,-1.63276 -4.39936,-3.40157 0,-1.85953 1.40598,-3.53764 4.44472,-3.53764 1.90488,0 4.03653,0.68032 6.21354,2.5852 z" />
      <path
         id="path487"
         d="m 409.84993,127.0829 c 1.08851,-4.03654 3.99118,-7.07527 9.02551,-10.20472 l 2.99338,-1.85953 c 4.12724,-2.58519 7.61953,-5.03432 7.61953,-10.6129 0,-5.714646 -4.39937,-9.34299 -11.29323,-9.34299 -4.44472,0 -7.30204,1.269921 -9.34298,3.26551 -1.54205,1.542046 -2.53984,3.58299 -2.99339,5.53322 -0.0453,0.22678 -0.0907,0.4989 -0.0907,0.68032 0,1.04315 0.72566,1.67811 1.72346,1.85953 0.27213,0.0453 0.4989,0.0907 0.72567,0.0907 0.90708,0 1.67811,-0.40818 1.95023,-1.45133 0.81638,-3.1748 2.49449,-6.168188 7.80094,-6.168188 4.26331,0 7.07527,2.040948 7.07527,5.442518 0,3.40157 -1.90488,5.17039 -6.3496,8.11842 l -3.12945,1.99559 c -4.2633,2.76661 -6.98456,5.62393 -8.61731,8.70802 -0.72567,1.31528 -1.72347,3.58299 -1.72347,5.17039 0,1.81418 0.9978,2.72126 2.72126,2.72126 h 20.63621 c 1.0885,0 1.67811,-0.95244 1.67811,-1.99559 0,-1.13386 -0.58961,-1.95023 -1.67811,-1.95023 z" />
      <path
         id="path489"
         d="m 484.43429,103.49866 c -2.94803,0.22677 -6.71244,0.68031 -9.43369,1.0885 -0.95244,0.13607 -1.54205,0.81638 -1.54205,1.67811 0,0.13607 0,0.27213 0.0453,0.36284 0.13607,0.95244 0.77103,1.45133 1.54205,1.45133 0.13606,0 0.27213,0 0.40819,-0.0453 2.58519,-0.36283 5.80535,-0.81638 8.11842,-0.99779 -0.58961,2.22236 -1.36063,4.39936 -2.0863,6.53102 -2.04094,5.75999 -4.49007,10.93038 -7.21133,15.28439 -0.27213,0.40819 -0.36284,0.81638 -0.36284,1.17922 0,0.63496 0.36284,1.22456 0.9978,1.5874 0.31748,0.22677 0.68031,0.31748 0.99779,0.31748 0.63496,0 1.26992,-0.31748 1.72347,-1.13386 2.76661,-4.49008 5.21574,-9.97795 7.34739,-16.10078 0.90709,-2.63055 1.72347,-5.30645 2.44913,-7.937 1.13386,-0.0907 2.35843,-0.18142 3.90047,-0.18142 4.26331,0 5.57858,1.67811 5.57858,6.71244 0,4.03653 -0.5896,8.34519 -1.31527,10.88503 -0.81638,2.90268 -1.99559,3.71905 -3.90047,3.71905 -1.67811,0 -3.49228,-0.49889 -4.80756,-1.13385 -0.40819,-0.22677 -0.81637,-0.31748 -1.17921,-0.31748 -0.63496,0 -1.17921,0.36283 -1.45134,0.99779 -0.18141,0.27213 -0.22677,0.58961 -0.22677,0.90709 0,0.68031 0.36284,1.31527 0.9978,1.67811 1.85952,1.04315 4.39936,1.63275 6.57637,1.63275 3.62834,0 6.21354,-1.63275 7.48346,-6.07747 0.95244,-3.26551 1.5874,-7.75559 1.5874,-12.1096 0,-7.07527 -2.72126,-10.25008 -8.9348,-10.25008 -1.0885,0 -2.177,0.0454 -3.49228,0.0907 0.58961,-2.49448 1.13386,-5.170387 1.49669,-7.755582 0.0454,-0.136063 0.0454,-0.272126 0.0454,-0.408189 0,-0.907086 -0.58961,-1.451338 -1.63276,-1.542046 -0.13606,-0.04536 -0.27212,-0.04536 -0.40818,-0.04536 -0.90709,0 -1.58741,0.408189 -1.72347,1.587401 -0.40819,2.766612 -0.90708,5.578581 -1.5874,8.345191 z m 29.02675,13.37952 c -1.63275,-5.44252 -5.17039,-12.42708 -8.70802,-16.82645 -0.40819,-0.498894 -0.9978,-0.816374 -1.63276,-0.816374 -0.31748,0 -0.63496,0.09071 -0.95244,0.272126 -0.63496,0.31748 -0.99779,0.952438 -0.99779,1.542048 0,0.31748 0.0907,0.63496 0.31748,0.90708 3.58299,4.44473 6.71243,11.0211 8.39054,16.14614 0.31748,0.95244 0.95244,1.40598 1.72347,1.40598 0.27212,0 0.5896,-0.0454 0.86173,-0.18142 0.72567,-0.22677 1.13386,-0.81638 1.13386,-1.63275 0,-0.22677 -0.0454,-0.54425 -0.13607,-0.81638 z" />
      <path
         id="path491"
         d="m 575.55954,100.64134 c -8.75338,3.12945 -13.56094,9.34299 -13.56094,16.19148 0,5.76 3.12945,9.88724 7.80094,12.15496 2.85732,1.36063 6.44031,2.0863 10.20472,2.0863 1.36063,0 2.0863,-0.72567 2.17701,-2.04095 0,-0.0907 0,-0.13606 0,-0.22677 0,-1.04315 -0.68032,-1.85953 -1.99559,-1.85953 -3.03874,-0.0453 -6.07748,-0.54425 -8.48126,-1.6781 -3.26551,-1.4967 -5.80535,-4.21796 -5.80535,-8.75339 0,-7.30204 6.8485,-13.83306 16.64503,-15.46581 1.04315,-0.18142 1.76882,-0.27213 2.53984,-0.36284 1.31528,-0.13606 1.76882,-0.997791 1.76882,-1.950231 0,-0.04536 0,-0.09071 0,-0.136063 -0.0907,-1.043149 -0.68031,-1.768818 -1.95023,-1.768818 -0.0454,0 -0.0907,0 -0.13607,0 -10.97574,0.498897 -22.94927,1.26992 -34.01572,2.131652 -0.9978,0.09071 -1.67811,0.907086 -1.67811,1.90488 0,0.0454 0,0.0907 0,0.18142 0.0907,1.04315 0.77102,1.72346 1.95023,1.72346 0.0907,0 0.13606,0 0.22677,0 5.76,-0.45354 12.1096,-1.04315 18.59527,-1.5874 1.49669,-0.13606 3.44692,-0.36283 5.66928,-0.81638 z" />
      <path
         id="path493"
         d="m 643.66817,100.1878 c 8.02771,0.27212 13.06204,5.8507 13.06204,13.51558 0,4.7622 -2.0863,8.4359 -4.94362,10.56755 -2.26771,1.67811 -5.76,2.81197 -9.07086,3.26551 -1.04315,0.18142 -1.63275,0.86173 -1.63275,1.76882 0,0.13606 0,0.31748 0.0453,0.45354 0.18142,1.13386 0.95244,1.5874 1.90488,1.5874 0.13606,0 0.31748,0 0.4989,-0.0454 3.62834,-0.54425 6.89385,-1.5874 9.5244,-3.26551 4.71685,-2.99339 7.48346,-7.8463 7.48346,-14.24125 0,-9.97795 -7.07527,-16.962512 -17.77889,-16.962512 -12.38172,0 -20.27337,8.163772 -20.27337,19.456992 0,7.61953 3.76441,12.20031 8.48126,12.20031 1.85952,0 3.7644,-0.58961 5.21574,-1.99559 1.5874,-1.49669 2.90268,-3.53763 4.49008,-8.20913 1.5874,-4.85291 2.58519,-11.20251 2.99338,-18.09636 z m -3.76441,0.13606 c -0.31748,6.21354 -1.45133,12.42708 -2.85732,16.69038 -1.0885,3.31087 -2.13165,5.2611 -3.12944,6.21354 -0.95244,0.95244 -1.99559,1.31528 -3.03874,1.31528 -2.40378,0 -4.71685,-2.85732 -4.71685,-8.29984 0,-8.79874 5.44252,-15.14834 13.74235,-15.91936 z" />
      <path
         id="path495"
         d="m 726.6431,118.10275 c -2.85732,-1.4967 -6.66708,-2.31307 -10.38613,-2.31307 -9.84188,0 -14.15054,3.62834 -14.15054,8.5266 0,5.21575 4.85291,8.25449 14.15054,8.25449 4.62614,0 9.02551,-0.4989 13.06204,-1.72347 0.90708,-0.27212 1.36063,-0.95244 1.36063,-1.76881 0,-0.22678 -0.0454,-0.45355 -0.0907,-0.68032 -0.22677,-0.90708 -0.86173,-1.31527 -1.63276,-1.31527 -0.27212,0 -0.54425,0.0453 -0.81637,0.13606 -3.6737,1.13386 -7.89165,1.72346 -11.65606,1.72346 -7.25669,0 -10.47684,-1.54204 -10.47684,-4.7622 0,-2.94803 2.44913,-5.2611 10.34078,-5.2611 4.62614,0 8.39054,0.95244 11.51999,2.49449 0.9978,0.4989 1.54205,0.72567 2.17701,0.72567 0.99779,0 1.90488,-0.95244 1.90488,-2.04095 0,-0.54425 -0.18142,-1.13385 -0.90709,-1.81417 -2.6759,-2.72126 -5.12503,-5.57858 -6.75779,-8.11842 3.49228,-0.5896 6.48567,-1.22456 9.07086,-1.85952 0.95244,-0.31748 1.45134,-0.77103 1.45134,-1.5874 0,-0.18142 -0.0454,-0.36284 -0.0907,-0.58961 -0.18142,-0.81638 -0.72567,-1.17921 -1.5874,-1.17921 -0.22677,0 -0.45354,0.0453 -0.72567,0.0907 -3.08409,0.81637 -6.57637,1.54204 -10.11401,2.13165 -0.95244,-1.54205 -1.81417,-3.12945 -2.53984,-4.7622 4.26331,-0.72567 8.16378,-1.49669 11.33858,-2.40378 0.81637,-0.272127 1.17921,-0.771024 1.17921,-1.496693 0,-0.181417 -0.0454,-0.408189 -0.0907,-0.63496 -0.22677,-0.861732 -0.77102,-1.224566 -1.49669,-1.224566 -0.22677,0 -0.45355,0.04535 -0.72567,0.136063 -3.26551,0.95244 -7.25669,1.768817 -11.6107,2.403778 -0.54425,-1.405984 -1.13386,-2.902676 -1.63276,-4.399368 -0.31748,-0.997794 -0.90708,-1.405983 -1.67811,-1.405983 -0.22677,0 -0.45354,0.04535 -0.72567,0.09071 -0.81637,0.226771 -1.26992,0.771023 -1.26992,1.451337 0,0.272126 0.0454,0.498898 0.18142,0.771023 0.54425,1.315275 1.04315,2.675904 1.5874,3.90047 -4.30866,0.4989 -8.88944,0.77102 -13.01668,0.77102 -0.9978,0 -1.63276,0.68032 -1.63276,1.67811 0.0454,1.04315 0.72567,1.67811 1.81417,1.67811 4.6715,0 9.70583,-0.36283 14.37732,-0.95244 0.81638,1.72346 1.63275,3.35622 2.58519,4.85291 -6.03212,0.81638 -11.88282,1.22457 -17.05321,1.26992 -0.9978,0.0454 -1.5874,0.54425 -1.5874,1.63276 0,0.0453 0,0.0907 0,0.13606 0,0.90709 0.63496,1.54205 1.85952,1.5874 6.39496,-0.0453 12.65385,-0.68031 18.68597,-1.49669 1.76882,2.63055 3.76441,5.17039 5.98677,7.12062 z" />
      <path
         id="path497"
         d="m 45.9064,169.92769 c -0.498897,-0.36283 -0.997794,-0.54425 -1.496692,-0.54425 -0.544251,0 -1.043149,0.22677 -1.496692,0.63496 -4.716847,4.58078 -11.519992,9.93259 -17.18928,13.56094 -2.131652,1.40598 -2.948029,2.72125 -2.948029,4.53543 0,1.6781 0.680314,2.85732 2.766612,4.2633 6.621728,4.53543 13.696999,10.06865 19.048807,15.2844 0.498897,0.4989 1.043148,0.72567 1.5874,0.72567 0.589606,0 1.133858,-0.27213 1.542046,-0.77103 0.31748,-0.36283 0.544252,-0.90708 0.544252,-1.49669 0,-0.5896 -0.226772,-1.22456 -0.816377,-1.76881 -5.306454,-4.94362 -13.107394,-10.83968 -18.731327,-14.46803 -1.224566,-0.77102 -1.587401,-1.17921 -1.587401,-1.81417 0,-0.63496 0.226772,-1.0885 1.269921,-1.76882 5.669288,-3.62834 12.381724,-8.66267 17.461406,-13.47022 0.498897,-0.45355 0.725669,-0.9978 0.725669,-1.54205 0,-0.4989 -0.226772,-0.9978 -0.680315,-1.36063 z" />
      <path
         id="path499"
         d="m 118.99409,176.59477 c -2.81197,1.22457 -5.35181,2.40378 -7.3474,3.44693 -0.5896,0.31748 -0.86173,0.86173 -0.86173,1.40598 0,0.36284 0.0907,0.68032 0.31748,0.95244 0.31748,0.40819 0.77102,0.63496 1.26992,0.63496 0.40819,0 0.90709,-0.13606 1.40598,-0.40819 3.44693,-1.85952 7.21134,-4.08188 10.56756,-5.80535 0.86173,-0.45354 1.22456,-1.04314 1.22456,-1.81417 0,-0.27212 -0.0453,-0.54425 -0.0907,-0.81638 -0.22677,-0.81637 -1.04314,-1.40598 -1.99558,-1.40598 -0.0907,0 -0.18142,0 -0.22678,0 -2.81196,0.18142 -6.98456,0.36284 -11.47463,0.36284 -4.26331,0 -8.29984,-0.13607 -11.15716,-0.36284 -0.0454,0 -0.13607,0 -0.22677,0 -1.043153,0 -1.678113,0.54425 -1.814176,1.5874 0,0.13606 0,0.22677 0,0.31748 0,0.95244 0.544251,1.63276 1.542046,1.76882 2.72126,0.27213 6.44031,0.36283 10.11401,0.36283 2.85732,0 6.03212,-0.18141 8.66267,-0.45354 z m -22.813214,20.86298 c 0,3.44693 1.814172,5.76 5.170394,7.16598 2.72125,1.04315 6.57637,1.63276 11.38393,1.63276 5.8507,0 10.79432,-0.45355 14.33195,-1.40599 1.13386,-0.31748 1.81418,-0.99779 1.81418,-1.99559 0,-0.18141 -0.0454,-0.40819 -0.0907,-0.63496 -0.18142,-0.95244 -0.81638,-1.45133 -1.76882,-1.45133 -0.22677,0 -0.4989,0.0454 -0.77102,0.0907 -3.40158,0.77103 -8.16378,1.45134 -13.60629,1.45134 -3.90047,0 -6.80315,-0.36283 -8.98015,-1.0885 -2.44914,-0.81638 -3.673703,-2.13165 -3.673703,-4.30866 0,-1.85953 1.224563,-3.80976 3.265513,-5.71464 0.40819,-0.36284 0.5896,-0.81638 0.5896,-1.22457 0,-0.45354 -0.18141,-0.86173 -0.63496,-1.22456 -0.36283,-0.31748 -0.77102,-0.45355 -1.22456,-0.45355 -0.54426,0 -1.08851,0.22677 -1.54205,0.63496 -3.038738,2.72126 -4.263304,5.76 -4.263304,8.52661 z" />
      <path
         id="path501"
         d="m 198.88492,178.22753 c 0,-1.40599 0,-2.90268 0,-4.44472 0,-0.77103 0,-1.54205 0,-2.31307 0,-1.08851 -0.72567,-1.72347 -1.90488,-1.72347 -1.0885,0 -1.72346,0.58961 -1.72346,1.76882 0,2.31307 0.0453,4.67149 0.0907,6.93921 -2.49449,0.18142 -5.03433,0.22677 -7.48346,0.22677 -1.72347,0 -3.44693,-0.0454 -5.07968,-0.0907 -0.0454,0 -0.0907,0 -0.0907,0 -1.04315,0 -1.63276,0.68032 -1.63276,1.72347 0,1.0885 0.4989,1.81417 1.67811,1.85952 1.54205,0.0454 3.12945,0.0907 4.71685,0.0907 2.72126,0 5.48787,-0.0907 7.98236,-0.22677 0.0454,2.58519 0.13606,4.94362 0.27212,7.12062 0.0907,1.4967 0.22677,3.31087 0.36284,4.80756 -1.67811,-0.4989 -3.58299,-0.81638 -5.62394,-0.81638 -5.39716,0 -8.79873,2.94803 -8.79873,6.98457 0,4.53543 3.62834,7.30204 9.20692,7.30204 5.71464,0 8.98015,-2.26772 8.98015,-7.07527 0,-0.31748 0,-0.81638 -0.0453,-1.22457 1.72346,1.0885 3.44693,2.53984 5.21574,4.49008 0.36284,0.40819 0.86174,0.5896 1.31528,0.5896 0.45354,0 0.95244,-0.18141 1.36063,-0.5896 0.36283,-0.40819 0.54425,-0.90709 0.54425,-1.40599 0,-0.49889 -0.22677,-1.04315 -0.58961,-1.40598 -1.99559,-2.0863 -5.17039,-4.35401 -7.89164,-5.62393 -0.13607,-1.95024 -0.36284,-4.26331 -0.4989,-5.98677 -0.18142,-2.26772 -0.22677,-4.71685 -0.27213,-7.39275 2.63055,-0.22677 5.03433,-0.4989 7.12063,-0.90709 0.90708,-0.18142 1.36063,-0.72567 1.36063,-1.67811 0,-0.13606 0,-0.27212 -0.0454,-0.40819 -0.0453,-0.86173 -0.63496,-1.45133 -1.54204,-1.45133 -0.13607,0 -0.27213,0 -0.40819,0.0453 -2.0863,0.36283 -4.35402,0.58961 -6.57638,0.81638 z m -2.58519,19.32093 c 0.0453,0.54425 0.0907,0.86173 0.0907,1.26992 0,3.6737 -1.49669,5.21575 -5.85071,5.21575 -3.31086,0 -5.39716,-1.54205 -5.39716,-3.85512 0,-2.31307 2.0863,-3.85512 5.30645,-3.85512 2.0863,0 3.99118,0.40819 5.85071,1.22457 z M 175.981,169.92769 c -0.22677,-0.0454 -0.40819,-0.0454 -0.5896,-0.0454 -0.90709,0 -1.54205,0.45354 -1.85953,1.5874 -1.5874,5.98676 -2.6759,14.42266 -2.6759,20.68156 0,5.30645 0.49889,10.15936 1.40598,14.10519 0.22677,1.0885 0.86173,1.72346 1.85953,1.72346 0.13606,0 0.36283,0 0.54425,-0.0454 0.99779,-0.18142 1.40598,-0.81638 1.40598,-1.81418 0,-0.22677 -0.0453,-0.49889 -0.0907,-0.77102 -0.81638,-3.85512 -1.36063,-8.57196 -1.36063,-13.24346 0,-6.21354 1.08851,-13.87841 2.63055,-19.81983 0.0907,-0.31748 0.13606,-0.54425 0.13606,-0.81637 0,-0.81638 -0.49889,-1.36063 -1.40598,-1.54205 z" />
      <path
         id="path503"
         d="m 249.2501,191.10815 c 0.22677,-1.36063 0.45354,-3.03874 0.4989,-4.12724 0.0907,-2.53984 0.54425,-7.52882 1.63275,-12.88062 0,-0.0907 0,-0.18142 0,-0.27213 0,-0.90709 -0.5896,-1.67811 -1.54204,-1.81417 -0.0907,0 -0.18142,0 -0.27213,0 -0.90709,0 -1.67811,0.5896 -1.81417,1.63275 -1.26992,7.16598 -1.54205,12.42708 -1.5874,17.41605 0.0454,2.90268 0.22677,6.34961 0.45354,8.75339 0.0907,1.22456 0.72567,1.72346 1.67811,1.72346 0.0907,0 0.18142,0 0.27213,0 1.22456,-0.0454 1.6781,-0.77102 1.72346,-1.99559 0.13606,-5.35181 1.90488,-11.0211 6.03212,-15.55653 2.72126,-2.94803 6.21354,-4.94361 9.93259,-5.39716 0.22677,2.53984 0.31748,5.12504 0.36284,7.48346 0,5.98677 -0.63496,9.75118 -1.72347,12.24566 -0.99779,-0.22677 -1.90488,-0.5896 -2.72125,-1.0885 -1.72347,-1.04315 -2.90268,-2.72126 -3.53764,-4.7622 -0.27213,-0.77102 -0.81638,-1.17921 -1.54205,-1.17921 -0.18141,0 -0.40818,0.0454 -0.63496,0.0907 -0.68031,0.22677 -1.13385,0.81637 -1.13385,1.63275 0,0.22677 0.0453,0.4989 0.13606,0.72567 0.77102,2.53984 2.49449,4.89826 4.67149,6.3496 0.86173,0.58961 1.95024,1.04315 3.08409,1.40598 -1.40598,1.76882 -3.44692,3.44693 -5.30645,4.35402 -0.72567,0.31748 -1.13386,0.99779 -1.13386,1.67811 0,0.31748 0.0907,0.63496 0.27213,0.95244 0.40819,0.5896 0.95244,0.86173 1.5874,0.86173 0.36283,0 0.72567,-0.0907 1.0885,-0.27213 2.72126,-1.31527 5.53323,-3.99118 7.30205,-6.75779 0.18141,0 0.40818,0 0.5896,0 0.36284,0 0.72567,0 1.04315,0 9.38834,-0.18142 14.83086,-6.21354 14.7855,-14.10519 -0.0454,-7.30204 -5.71464,-13.28881 -13.92377,-13.33416 -0.22677,-1.63276 -0.40819,-3.12945 -0.5896,-4.58079 -0.13607,-1.04314 -0.81638,-1.63275 -1.72347,-1.63275 -0.0907,0 -0.22677,0 -0.36283,0.0454 -0.9978,0.0454 -1.63276,0.63496 -1.63276,1.4967 0,0.13606 0,0.27212 0.0454,0.40819 0.22677,1.49669 0.4989,3.03873 0.63496,4.58078 -4.35401,0.58961 -7.80094,2.63055 -10.74897,5.44252 -2.76661,2.6759 -4.62614,6.57637 -5.62393,10.52219 z m 30.47809,-2.90268 c 0.0454,5.94142 -3.90047,10.25008 -10.47684,10.47685 -0.22677,0 -0.45355,0 -0.72567,0 0.99779,-2.76661 1.67811,-6.80315 1.72346,-12.65385 -0.0453,-2.49449 -0.18142,-5.17039 -0.40819,-7.66488 6.34961,0.22677 9.84189,5.2611 9.88724,9.84188 z" />
      <path
         id="path505"
         d="m 329.23165,187.79729 c 0.18142,-1.54205 0.36283,-3.22016 0.4989,-4.6715 0.27212,-3.03874 1.31527,-7.937 2.40378,-11.97353 0.0907,-0.27213 0.13606,-0.54425 0.13606,-0.77103 0,-0.81637 -0.4989,-1.36063 -1.45134,-1.49669 -0.13606,-0.0453 -0.27212,-0.0453 -0.45354,-0.0453 -0.86173,0 -1.49669,0.49889 -1.81417,1.5874 -1.40599,5.39716 -2.49449,11.42928 -2.49449,16.50896 0,2.90268 0.27213,5.89606 0.63496,8.02771 0.27213,1.31528 1.04315,1.90489 2.04094,1.90489 0,0 0.0454,0 0.0907,0 1.26992,-0.0907 1.85953,-0.90709 1.85953,-2.22237 0,-3.44692 1.04315,-7.80094 2.76661,-11.47463 2.17701,-4.6715 5.39716,-7.30205 9.02551,-7.30205 4.49007,0 7.89165,3.90047 7.89165,11.38393 0,6.30425 -1.81418,10.70362 -5.48788,13.51559 -2.6759,2.04094 -6.66708,3.44692 -11.20251,4.03653 -1.0885,0.13606 -1.72346,0.81638 -1.72346,1.81417 0,0.13606 0,0.31748 0.0454,0.4989 0.18142,0.99779 0.9978,1.54204 1.99559,1.54204 0.0907,0 0.18142,0 0.31748,0 4.7622,-0.5896 9.4337,-2.22236 12.6085,-4.49007 4.80755,-3.44693 7.34739,-8.88945 7.34739,-16.78109 0,-10.43149 -5.26109,-15.10299 -11.51999,-15.10299 -4.12724,0 -8.07306,2.63055 -10.70361,7.75559 -0.95244,1.85953 -1.76882,4.2633 -2.53984,7.80094 z" />
      <path
         id="path507"
         d="m 410.211,187.16233 c 1.26992,-0.72567 2.81196,-1.76882 4.08188,-2.63055 3.6737,-2.44914 7.93701,-5.71465 11.83748,-9.34299 0.5896,-0.58961 0.86173,-1.22457 0.86173,-1.85953 0,-0.49889 -0.13607,-0.90708 -0.36284,-1.31527 -0.45354,-0.77102 -1.22456,-1.13386 -2.26771,-1.13386 -0.13607,0 -0.27213,0 -0.40819,0 -6.03212,0.40819 -13.78771,0.63496 -19.91054,0.63496 -1.04315,0 -1.5874,0.81638 -1.5874,1.85953 0,1.0885 0.72567,1.76882 1.67811,1.76882 5.80535,-0.0454 12.74456,-0.31748 17.68818,-0.72567 -5.71465,5.03432 -15.7833,12.42707 -23.26676,17.00786 -0.68031,0.36283 -1.04315,1.04315 -1.04315,1.72346 0,0.36284 0.0907,0.68032 0.31748,0.9978 0.36284,0.5896 0.9978,0.86173 1.63276,0.86173 0.40818,0 0.81637,-0.0907 1.22456,-0.31748 7.43811,-4.62614 12.92598,-6.62173 18.9581,-6.62173 6.44031,0 9.97795,3.12945 9.97795,7.43811 0,4.21795 -3.44693,7.07527 -8.07307,8.16377 -0.77102,-5.98677 -4.80755,-8.9348 -9.70582,-8.9348 -4.44472,0 -7.39275,2.5852 -7.39275,6.12283 0,4.21795 4.35401,7.02992 11.06645,7.02992 11.06645,0 18.00566,-4.80756 18.00566,-12.42708 0,-6.16818 -4.98898,-10.47684 -13.15275,-10.47684 -3.22016,0 -6.53102,0.77102 -10.06866,2.35842 z m 7.80094,17.32534 c -1.08851,0.0907 -2.22237,0.0907 -3.31087,0.0907 -4.03653,-0.0454 -6.75779,-1.76882 -6.75779,-3.85512 0,-1.67811 1.36063,-2.90267 3.71905,-2.90267 3.12945,0 5.98677,2.22236 6.34961,6.66708 z" />
      <path
         id="path509"
         d="m 483.34402,189.70217 c -4.12725,1.63275 -7.48346,4.08188 -9.25228,6.48566 -0.86173,1.22457 -1.36063,2.49449 -1.36063,3.80976 0,2.35843 1.54205,4.30866 3.62834,5.66929 1.81418,1.26992 3.80977,1.90488 5.39717,1.90488 3.35621,0 5.12503,-1.72346 5.12503,-5.21574 v -10.29543 c 3.08409,-1.0885 6.48567,-1.72346 9.5244,-1.72346 6.03213,0 9.07087,2.76661 9.07087,7.12062 0,3.94583 -2.63055,6.21354 -5.71465,6.21354 -2.13165,0 -3.58299,-0.90709 -4.7622,-2.49449 -0.40819,-0.5896 -0.95244,-0.81637 -1.49669,-0.81637 -0.45354,0 -0.86173,0.13606 -1.26992,0.40819 -0.4989,0.36283 -0.77102,0.90708 -0.77102,1.49669 0,0.40819 0.13606,0.86173 0.40818,1.26992 1.76882,2.63055 4.62614,3.85511 7.98236,3.85511 5.44252,0 9.4337,-3.90047 9.4337,-9.97794 0,-6.44031 -4.76221,-10.38614 -12.74456,-10.38614 -3.12945,0 -6.48567,0.58961 -9.66047,1.54205 v -7.937 c 3.12945,-0.27213 6.16819,-0.63496 8.70803,-1.13386 0.86173,-0.18142 1.40598,-0.72567 1.40598,-1.63276 0,-0.13606 0,-0.31748 -0.0453,-0.49889 -0.18142,-0.90709 -0.77103,-1.36063 -1.5874,-1.36063 -0.13607,0 -0.27213,0 -0.45355,0.0454 -2.31307,0.45354 -5.12503,0.81638 -8.02771,1.04315 v -6.89385 c 0,-1.04315 -0.68031,-1.63276 -1.76882,-1.63276 -1.04315,0 -1.76881,0.54425 -1.76881,1.5874 v 7.21134 c -2.99339,0.22677 -5.98677,0.31748 -8.52661,0.31748 -0.9978,0 -1.54205,0.68031 -1.54205,1.76881 0,0.9978 0.58961,1.76882 1.5874,1.76882 2.5852,0 5.62394,-0.0907 8.48126,-0.27212 z m 0,11.83747 c 0,1.72346 -0.58961,2.31307 -1.95024,2.31307 -0.86173,0 -2.0863,-0.40819 -3.03874,-1.04315 -1.0885,-0.72567 -1.95023,-1.72346 -1.95023,-2.81197 0,-0.68031 0.27212,-1.49669 0.81638,-2.22236 1.04314,-1.40598 3.26551,-3.08409 6.12283,-4.39937 z m 18.59526,-28.79998 c -0.31748,-0.18142 -0.72567,-0.27213 -1.04315,-0.27213 -0.58961,0 -1.0885,0.22677 -1.45134,0.68032 -0.31748,0.40818 -0.45354,0.81637 -0.45354,1.22456 0,0.4989 0.27213,0.95244 0.77102,1.26992 2.85732,1.76882 6.21354,4.6715 8.52661,7.3474 0.40819,0.45354 0.90709,0.63496 1.40599,0.63496 0.49889,0 0.95244,-0.18142 1.36062,-0.54425 0.36284,-0.36284 0.54426,-0.86173 0.54426,-1.36063 0,-0.45354 -0.18142,-0.95244 -0.4989,-1.36063 -2.31307,-2.76661 -6.07748,-5.85071 -9.16157,-7.61952 z" />
      <path
         id="path511"
         d="m 580.01595,183.08044 c 2.22236,-0.22677 4.12724,-0.54425 5.89606,-0.86173 0.86173,-0.13607 1.40598,-0.81638 1.40598,-1.67811 0,-0.13607 0,-0.27213 -0.0453,-0.40819 -0.0907,-0.86173 -0.68032,-1.45134 -1.5874,-1.45134 -0.13607,0 -0.27213,0 -0.45355,0.0453 -1.54204,0.31749 -3.44692,0.63497 -5.30645,0.81638 -0.0907,-3.1748 -0.27212,-6.21354 -0.45354,-8.48125 -0.0907,-1.13386 -0.72567,-1.67811 -1.76882,-1.67811 -0.0454,0 -0.0907,0 -0.13606,0 -1.13386,0.0907 -1.76882,0.5896 -1.76882,1.67811 0,0.0907 0,0.13606 0,0.22677 0.18142,2.31307 0.36283,5.48787 0.45354,8.66267 -2.31307,0.18142 -4.71684,0.22677 -7.16598,0.22677 -2.177,0 -5.21574,-0.0907 -6.80314,-0.18141 -0.0454,0 -0.0454,0 -0.0907,0 -0.90709,0 -1.5874,0.63496 -1.63276,1.6781 0,0.0454 0,0.0907 0,0.0907 0,0.9978 0.68032,1.67811 1.5874,1.76882 1.67811,0.13606 4.6715,0.18142 7.16598,0.18142 2.40378,0 4.71685,-0.0907 7.02992,-0.27213 0.0454,1.22457 0.0454,2.40378 0.0454,3.58299 0,6.16819 -0.9978,10.20472 -2.49449,12.6085 -1.5874,2.58519 -4.67149,4.44472 -7.57417,5.44251 -0.81638,0.27213 -1.22457,0.81638 -1.22457,1.5874 0,0.27213 0.0454,0.54426 0.18142,0.90709 0.27213,0.81638 0.86173,1.17921 1.63276,1.17921 0.27212,0 0.54425,-0.0453 0.86173,-0.13606 3.76441,-1.17921 7.25669,-3.76441 9.20692,-6.93921 1.90488,-3.08409 3.08409,-7.75558 3.08409,-14.46802 0,-1.40598 0,-2.72126 -0.0453,-4.12724 z m -24.35526,-13.1981 c -0.13606,0 -0.27213,0 -0.36283,0 -1.04315,0 -1.85953,0.49889 -2.04095,1.63275 -1.26992,6.53102 -2.177,12.92598 -2.177,18.18708 0,5.44251 0.63496,11.15715 1.81417,15.82865 0.31748,1.04315 1.0885,1.49669 1.90488,1.49669 0.22677,0 0.45354,-0.0454 0.63496,-0.0907 0.81638,-0.22677 1.31527,-0.77102 1.31527,-1.63275 0,-0.27213 -0.0453,-0.54426 -0.13606,-0.81638 -1.0885,-4.58079 -1.67811,-9.93259 -1.67811,-14.83086 0,-4.98897 0.86173,-11.33857 2.17701,-17.4614 0.0453,-0.22678 0.0907,-0.40819 0.0907,-0.58961 0,-0.90709 -0.54426,-1.5874 -1.54205,-1.72346 z" />
      <path
         id="path513"
         d="m 634.78051,169.42879 c -0.18142,-0.0453 -0.36284,-0.0453 -0.4989,-0.0453 -0.81638,0 -1.40598,0.4989 -1.67811,1.31527 -0.0907,0.27213 -0.13606,0.4989 -0.13606,0.72567 0,0.77103 0.45354,1.36063 1.22457,1.54205 4.98897,1.13386 12.97133,2.22236 18.50455,2.49449 0.0453,0 0.0907,0 0.13606,0 1.17922,0 1.85953,-0.58961 1.95024,-1.67811 0,-0.0907 0,-0.13607 0,-0.22678 0,-0.95244 -0.54425,-1.6781 -1.81417,-1.76881 -5.39717,-0.27213 -12.88063,-1.26992 -17.68818,-2.35843 z m 6.07747,24.2192 c 1.22457,-0.81638 2.40378,-1.67811 3.71906,-2.76661 2.6759,-2.26772 5.71464,-4.85291 8.4359,-7.39275 0.63496,-0.58961 0.95244,-1.22457 0.95244,-1.90488 0,-0.36284 -0.0907,-0.77103 -0.31748,-1.17922 -0.45355,-0.77102 -1.13386,-1.0885 -2.26772,-1.0885 -0.13606,0 -0.31748,0 -0.45354,0 -6.57637,0.68032 -15.73794,1.26992 -21.49794,1.36063 -0.90709,0 -1.54205,0.86173 -1.54205,1.85953 0,0.0453 0,0.0453 0,0.0907 0.0454,1.04315 0.72567,1.81418 1.81418,1.85953 5.48787,-0.13606 13.7877,-0.81638 19.0488,-1.67811 -2.63055,2.17701 -6.44031,5.62394 -10.20471,8.98015 -4.71685,4.30866 -9.4337,8.66268 -12.74456,11.74677 -0.54425,0.4989 -0.77103,1.0885 -0.77103,1.67811 0,0.49889 0.22678,0.99779 0.58961,1.36063 0.36283,0.40818 0.86173,0.5896 1.36063,0.5896 0.54425,0 1.0885,-0.22677 1.63275,-0.72567 2.17701,-2.04094 4.62614,-4.44472 6.75779,-6.44031 3.35622,-3.12944 6.53102,-4.53543 8.70803,-4.53543 1.54205,0 2.40378,0.68032 2.5852,4.08189 0.31748,6.12283 1.95023,7.98236 7.52881,7.98236 2.85732,0 6.30425,-0.68032 8.57196,-1.76882 0.86173,-0.40819 1.22457,-1.0885 1.22457,-1.85953 0,-0.27212 -0.0454,-0.54425 -0.18142,-0.86173 -0.31748,-0.72567 -0.90708,-1.0885 -1.5874,-1.0885 -0.31748,0 -0.63496,0.0907 -0.95244,0.22677 -1.99559,0.95244 -4.44472,1.72346 -6.80314,1.72346 -3.12945,0 -3.94583,-0.86173 -4.21795,-5.48787 -0.27213,-4.35401 -1.63276,-5.8507 -4.49008,-5.8507 -1.26992,0 -2.90268,0.31748 -4.67149,1.40598 z" />
      <path
         id="path515"
         d="m 712.63041,175.37021 c -6.57638,4.85291 -10.5222,11.51999 -10.5222,18.18707 0,9.47905 5.89606,14.10519 13.24345,14.10519 9.79653,0 15.23905,-6.57637 15.23905,-17.82424 0,-2.94803 -0.68031,-6.53102 -1.85953,-10.06866 l 0.27213,-0.0907 c 1.99559,4.49007 4.49008,8.29983 7.937,11.38392 0.45355,0.45355 0.95244,0.63497 1.40599,0.63497 0.54425,0 1.04314,-0.22678 1.40598,-0.63497 0.31748,-0.40818 0.4989,-0.86173 0.4989,-1.31527 0,-0.58961 -0.22678,-1.13386 -0.77103,-1.5874 -4.35401,-3.62834 -8.4359,-9.02551 -11.20251,-15.37511 -0.31748,-0.68031 -0.95244,-1.0885 -1.67811,-1.0885 -0.22677,0 -0.4989,0.0454 -0.72567,0.0907 -0.86173,0.31748 -1.36063,0.81637 -1.36063,1.5874 0,0.18141 0.0454,0.45354 0.13607,0.68031 1.54204,4.21795 2.44913,9.34299 2.44913,14.37732 0,10.34078 -4.12724,15.42046 -11.83747,15.42046 -5.17039,0 -9.38834,-3.35622 -9.38834,-10.20472 0,-6.53102 3.67369,-12.92598 11.1118,-18.18707 0.58961,-0.40819 0.86173,-0.9978 0.86173,-1.58741 0,-0.36283 -0.0907,-0.72566 -0.27212,-1.0885 -0.40819,-0.72567 -0.95244,-1.0885 -1.81418,-1.0885 -0.22677,0 -0.45354,0 -0.68031,0.0454 -4.39937,0.77103 -8.34519,1.17921 -12.88062,1.26992 -1.04315,0 -1.63276,0.81638 -1.63276,1.72347 0,0.0453 0,0.0453 0,0.0907 0.0454,1.17921 0.68032,1.76881 1.67811,1.76881 3.80976,0 7.07527,-0.49889 10.25007,-1.49669 z" />
      <path
         id="path517"
         d="m 55.612221,279.39795 c 0.362834,-0.40819 0.544251,-0.81638 0.544251,-1.26993 0,-0.54425 -0.226771,-1.0885 -0.680314,-1.49669 -2.222361,-2.177 -4.943619,-4.08188 -7.664877,-5.3518 -0.181417,-1.72347 -0.362834,-3.53764 -0.498897,-5.03433 -0.136063,-1.49669 -0.181418,-3.08409 -0.272126,-4.85291 2.539841,-0.18142 4.85291,-0.45355 6.939208,-0.77103 0.997795,-0.18141 1.451338,-0.77102 1.451338,-1.6781 0,-0.0907 0,-0.18142 0,-0.27213 -0.09071,-0.86173 -0.725669,-1.40598 -1.587401,-1.40598 -0.09071,0 -0.181417,0 -0.272126,0 -1.995589,0.31748 -4.308658,0.5896 -6.621728,0.72566 -0.09071,-2.177 -0.181417,-4.53543 -0.181417,-6.9392 2.267715,-0.13607 4.626139,-0.36284 6.712437,-0.72567 0.907086,-0.13607 1.315274,-0.72567 1.315274,-1.5874 0,-0.13607 0,-0.27213 -0.04535,-0.40819 -0.09071,-0.95244 -0.725669,-1.36063 -1.496692,-1.36063 -0.09071,0 -0.181417,0 -0.272126,0 -3.310864,0.40819 -7.029916,0.77102 -10.794323,0.86173 -1.950235,0.0454 -3.90047,0.0907 -5.759997,0.0907 -1.542046,0 -3.038738,-0.0453 -4.399367,-0.0907 -0.04535,0 -0.136063,0 -0.181417,0 -0.952441,0 -1.542046,0.68032 -1.542046,1.63276 0,0.0453 0,0.0907 0,0.13606 0,0.90709 0.544251,1.5874 1.632754,1.67811 1.587401,0.0907 3.310864,0.13606 5.079682,0.13606 1.995589,0 4.081887,-0.0454 6.258894,-0.18142 0,2.53984 0.04535,4.98898 0.136063,7.02992 -2.177007,0.0907 -4.308659,0.13606 -6.304248,0.13606 -2.040944,0 -3.945824,-0.0454 -5.669288,-0.13606 -0.04535,0 -0.136063,0 -0.181417,0 -0.907086,0 -1.451338,0.63496 -1.496692,1.63276 0,0.99779 0.453543,1.76881 1.5874,1.85952 1.405984,0.0454 2.902676,0.0907 4.399368,0.0907 2.539841,0 5.17039,-0.0907 7.80094,-0.22677 0.09071,1.85953 0.181417,3.40157 0.272125,4.67149 0.09071,1.22457 0.226772,2.49449 0.362835,3.76441 -1.768818,-0.63496 -3.719053,-0.90709 -5.578579,-0.90709 -5.578579,0 -9.025506,2.76662 -9.025506,6.93921 0,4.49008 3.628344,7.07527 9.206923,7.07527 5.578579,0 9.025506,-2.35842 9.025506,-6.75779 0,-0.18142 0,-0.36283 0,-0.5896 0,-0.18142 0,-0.45355 -0.04535,-0.68032 1.723463,1.04315 3.492281,2.5852 5.17039,4.26331 0.408189,0.40818 0.861732,0.5896 1.360629,0.5896 0.498897,0 0.95244,-0.18142 1.315275,-0.5896 z m -11.247867,-4.39937 c 0,3.40157 -1.814172,4.85291 -5.896059,4.85291 -3.26551,0 -5.351808,-1.36063 -5.351808,-3.76441 0,-2.31307 2.040944,-3.76441 5.442516,-3.76441 1.904881,0 3.90047,0.40819 5.759997,1.17922 0.04535,0.54425 0.04535,0.99779 0.04535,1.49669 z m -19.18487,-27.03117 c 0.04536,-0.27212 0.09071,-0.49889 0.09071,-0.72566 0,-0.86174 -0.453543,-1.40599 -1.360629,-1.58741 -0.226771,-0.0453 -0.408189,-0.0453 -0.63496,-0.0453 -0.861732,0 -1.542046,0.45354 -1.814172,1.54205 -1.587401,6.03212 -2.675904,14.46802 -2.675904,20.72691 0,5.30646 0.498897,10.11401 1.405983,14.10519 0.226772,1.0885 0.861732,1.72346 1.859527,1.72346 0.181417,0 0.362834,0 0.589606,-0.0453 0.907086,-0.22677 1.405983,-0.77102 1.405983,-1.76882 0,-0.22677 -0.04535,-0.54425 -0.09071,-0.81638 -0.861731,-3.85511 -1.405983,-8.57196 -1.405983,-13.24345 0,-6.21354 1.088503,-13.87842 2.630549,-19.86519 z" />
      <path
         id="path519"
         d="m 114.4133,252.14001 c -1.72346,0.31748 -3.62834,0.81638 -5.48787,1.36063 -1.36062,0.40819 -2.76661,0.86173 -4.2633,1.40598 -0.72567,-2.40378 -1.54205,-4.80755 -2.40378,-7.16598 -0.27212,-0.86173 -0.90708,-1.26992 -1.67811,-1.26992 -0.22677,0 -0.49889,0.0454 -0.816374,0.13607 -0.816378,0.27212 -1.405984,0.86173 -1.405984,1.63275 0,0.18142 0.04535,0.40819 0.09071,0.58961 0.907086,2.49448 1.814169,4.89826 2.585199,7.30204 -2.630554,0.95244 -5.170394,1.95023 -7.483464,2.99338 -0.771023,0.36284 -1.179212,1.04315 -1.179212,1.76882 0,0.27213 0.04536,0.54425 0.181418,0.81638 0.272125,0.72567 0.907086,1.13386 1.5874,1.13386 0.31748,0 0.589606,-0.0454 0.907086,-0.18142 2.177007,-0.95244 4.626139,-2.04095 7.120622,-3.03874 2.35843,7.57417 4.21795,15.60188 5.89606,23.53888 0.22677,0.95244 0.95244,1.40599 1.85953,1.40599 0.18142,0 0.36283,0 0.5896,-0.0454 0.90709,-0.27212 1.45134,-0.86173 1.45134,-1.72346 0,-0.22677 -0.0453,-0.45355 -0.0907,-0.68032 -1.72346,-7.937 -3.80976,-16.01007 -6.21354,-23.76565 1.36063,-0.58961 2.90268,-1.13386 4.44473,-1.5874 3.90047,-1.13386 7.84629,-1.85953 10.38613,-1.85953 4.94362,0 7.57417,2.81197 7.57417,6.75779 0,3.76441 -2.85732,6.39496 -7.39275,6.39496 -2.13165,0 -4.21795,-0.58961 -5.76,-1.36063 -0.27212,-0.13606 -0.5896,-0.22677 -0.86173,-0.22677 -0.68031,0 -1.31527,0.40819 -1.63275,1.0885 -0.13607,0.27213 -0.18142,0.58961 -0.18142,0.86173 0,0.68032 0.36283,1.31528 1.0885,1.72347 2.22236,1.17921 4.85291,1.72346 7.80094,1.72346 6.3496,0 10.74897,-3.94582 10.74897,-10.34078 0,-5.80535 -3.80976,-10.06865 -11.24787,-10.06865 -0.72566,0 -1.5874,0.0454 -2.53984,0.18141 l -0.36283,-5.66929 c -0.0907,-1.0885 -0.77102,-1.63275 -1.90488,-1.63275 -0.0454,0 -0.0907,0 -0.13606,0 -0.9978,0.0454 -1.76882,0.58961 -1.76882,1.63275 0,0.0907 0,0.18142 0.0453,0.27213 z" />
      <path
         id="path521"
         d="m 187.31958,265.88236 c 0.0907,0 0.18141,0 0.27212,0 5.39716,0 8.48126,2.31307 8.48126,6.62173 0,4.1726 -3.40158,6.71244 -8.16378,6.71244 -4.67149,0 -6.98456,-1.72347 -8.16377,-4.71685 -0.40819,-0.95244 -1.04315,-1.31527 -1.90488,-1.31527 -0.27213,0 -0.54425,0.0453 -0.86173,0.13606 -0.9978,0.27212 -1.63276,0.90708 -1.63276,1.81417 0,0.27213 0.0454,0.54425 0.18142,0.86173 1.63275,4.08189 5.44251,6.98456 12.29101,6.98456 7.89165,0 12.6085,-4.12724 12.6085,-10.114 0,-5.21575 -2.53984,-8.3452 -7.80094,-9.07086 4.49008,-1.08851 6.71244,-3.94583 6.71244,-8.48126 0,-5.53322 -4.49008,-9.07086 -11.15716,-9.07086 -7.02992,0 -10.06866,3.26551 -11.42929,6.66708 -0.13606,0.31748 -0.18141,0.58961 -0.18141,0.86173 0,0.81638 0.5896,1.36063 1.45133,1.67811 0.31749,0.0907 0.68032,0.18142 0.9978,0.18142 0.72567,0 1.40598,-0.31748 1.76882,-1.17921 1.0885,-2.85732 3.1748,-4.58079 7.21133,-4.58079 4.35401,0 7.07527,2.13166 7.07527,5.76 0,3.94583 -2.81196,6.3496 -7.34739,6.3496 -0.13607,0 -0.31748,0 -0.45355,0 l -2.44913,-0.0907 c -1.13386,-0.0454 -1.72346,0.95245 -1.72346,2.04095 0,1.04315 0.5896,2.04094 1.72346,1.99559 z" />
      <path
         id="path523"
         d="m 254.14836,255.85906 c -2.13165,8.29984 -5.21574,16.91716 -8.5266,23.76566 -0.18142,0.40819 -0.27213,0.81637 -0.27213,1.13385 0,0.72567 0.36283,1.31528 0.99779,1.63276 0.36284,0.18142 0.68032,0.27212 1.04315,0.27212 0.68032,0 1.31528,-0.40818 1.72347,-1.22456 3.49228,-7.39275 6.57637,-16.8718 8.84409,-25.85195 3.67369,-0.27213 7.25668,-0.68032 10.15936,-1.17922 0.77102,-0.13606 1.31527,-0.81637 1.31527,-1.63275 0,-0.13606 0,-0.31748 -0.0453,-0.45354 -0.13606,-0.9978 -0.77102,-1.45134 -1.63275,-1.45134 -0.13607,0 -0.31749,0 -0.45355,0.0453 -2.40378,0.45355 -5.39716,0.81638 -8.4359,1.08851 0.45354,-1.95024 0.81638,-3.80976 1.13386,-5.57858 0.0453,-0.13606 0.0453,-0.27213 0.0453,-0.36284 0,-0.81637 -0.5896,-1.49669 -1.63275,-1.5874 -0.13606,-0.0454 -0.27213,-0.0454 -0.40819,-0.0454 -0.95244,0 -1.54205,0.45354 -1.72346,1.45134 -0.36284,2.13165 -0.81638,4.2633 -1.31528,6.39495 -2.94803,0.18142 -5.98677,0.22677 -8.4359,0.22677 -1.13386,0 -1.67811,0.68032 -1.72346,1.67811 0,0.0454 0,0.0907 0,0.13607 0,1.0885 0.54425,1.72346 1.63275,1.76881 0.31748,0 0.58961,0 0.90709,0 2.0863,0 4.49008,-0.13606 6.80314,-0.22677 z m 21.63401,1.49669 c -3.71906,0 -8.20913,0.45355 -11.56535,1.08851 -0.95244,0.18142 -1.45134,0.90708 -1.45134,1.72346 0,0.13606 0,0.22677 0.0454,0.36284 0.0907,0.99779 0.81637,1.5874 1.76881,1.5874 0.13607,0 0.27213,0 0.40819,-0.0454 3.0841,-0.5896 7.3474,-0.95244 10.56755,-0.95244 1.26993,0 2.85733,0 4.03654,0.0454 0.0453,0 0.13606,0 0.18141,0 1.04315,0 1.72347,-0.72567 1.72347,-1.76882 0,-1.04315 -0.63496,-1.85953 -1.76882,-1.90488 -1.40598,-0.0907 -2.76661,-0.13607 -3.94582,-0.13607 z m -11.20252,14.1959 c 0.31748,-0.31748 0.45355,-0.68031 0.45355,-1.04315 0,-0.4989 -0.27213,-1.04315 -0.72567,-1.31527 -0.31748,-0.18142 -0.63496,-0.31748 -0.9978,-0.31748 -0.40819,0 -0.81637,0.18141 -1.22456,0.54425 -1.72347,1.5874 -2.76662,4.03653 -2.76662,6.07748 0,2.85732 1.04315,4.80755 3.62835,6.12283 1.95023,0.99779 4.80756,1.45133 8.4359,1.45133 3.85511,0 7.57417,-0.31748 10.25007,-0.95244 1.17921,-0.27212 1.67811,-0.99779 1.67811,-1.90488 0,-0.13606 0,-0.27212 -0.0453,-0.45354 -0.13607,-0.86173 -0.72567,-1.40598 -1.67811,-1.40598 -0.22677,0 -0.40819,0 -0.63496,0.0453 -2.5852,0.54425 -6.34961,0.90709 -9.84189,0.90709 -2.81196,0 -4.89826,-0.22678 -6.21354,-0.86174 -1.36063,-0.68031 -2.04094,-1.63275 -2.04094,-3.1748 0,-1.36063 0.54425,-2.53984 1.72346,-3.71905 z" />
      <path
         id="path525"
         d="m 337.89432,259.03386 c -1.31527,-3.80976 -2.26771,-8.20912 -3.03874,-12.51778 -0.13606,-1.04315 -0.90708,-1.54205 -1.81417,-1.54205 -0.18142,0 -0.31748,0 -0.4989,0.0454 -0.90708,0.18142 -1.63275,0.77103 -1.63275,1.76882 0,0.13607 0,0.27213 0.0453,0.40819 0.86174,4.58079 1.95024,9.29763 3.31087,13.37952 -6.53102,3.1748 -10.34078,7.61952 -10.34078,12.20031 0,6.8485 5.12503,9.93259 16.23684,9.88723 5.30645,0 10.25007,-0.31748 13.74235,-1.0885 1.0885,-0.22677 1.72346,-0.99779 1.72346,-1.95023 0,-0.18142 0,-0.31748 -0.0454,-0.4989 -0.13606,-1.04315 -0.81638,-1.63276 -1.81417,-1.63276 -0.18142,0 -0.36284,0 -0.54425,0.0454 -3.44693,0.72567 -8.4359,1.22456 -12.88063,1.22456 -9.61511,0 -12.51778,-1.99558 -12.51778,-5.94141 0,-3.31086 3.08409,-6.71244 8.98015,-9.38834 4.80755,-2.17701 11.24787,-4.2633 15.96471,-5.44252 1.04315,-0.27212 1.54205,-0.95244 1.54205,-1.76881 0,-0.22677 -0.0454,-0.45355 -0.0907,-0.68032 -0.27213,-0.90708 -0.86173,-1.36063 -1.76882,-1.36063 -0.22677,0 -0.45354,0.0454 -0.72567,0.0907 -4.03653,1.04315 -9.34298,2.85732 -13.83306,4.7622 z" />
      <path
         id="path527"
         d="m 419.7354,268.60362 v 0.86173 c 0,5.35181 -3.99118,9.16157 -12.1096,10.65826 -0.90709,0.18142 -1.45134,0.86174 -1.45134,1.81418 0,0.13606 0,0.31748 0.0454,0.49889 0.18141,0.9978 0.90708,1.4967 1.81417,1.4967 0.18142,0 0.31748,0 0.45354,-0.0454 2.72126,-0.4989 5.17039,-1.31527 7.21134,-2.40378 4.80755,-2.53984 7.34739,-6.3496 7.34739,-12.24566 0,-2.13165 -0.40819,-4.08189 -1.31527,-5.94141 0,-3.12945 0,-6.3496 0,-9.38834 1.26992,-0.0454 2.49448,-0.0454 3.71905,-0.0454 2.94803,0 5.76,0.0454 8.4359,0.0907 1.04315,0 1.67811,-0.4989 1.67811,-1.5874 0,-0.0454 0,-0.0907 0,-0.13606 0,-1.22457 -0.63496,-1.81417 -1.85953,-1.81417 -1.54204,-0.0454 -3.1748,-0.0454 -4.80755,-0.0454 -2.31307,0 -4.71685,0.0454 -7.16598,0.0907 0,-1.63275 0,-3.12945 0,-4.39937 0,-1.17921 -0.58961,-1.72346 -1.90488,-1.72346 -1.13386,0 -1.72347,0.63496 -1.72347,1.63275 0,1.36063 0.0454,2.94803 0.0454,4.53544 -6.89386,0.13606 -13.96913,0.36283 -20.36408,0.72566 -1.04315,0.0454 -1.63276,0.77103 -1.63276,1.72347 0,0 0,0.0454 0,0.0907 0.0454,1.04314 0.63496,1.76881 1.67811,1.76881 0.0454,0 0.13606,0 0.18142,0 6.57637,-0.40819 13.51558,-0.68031 20.18266,-0.81637 0,2.13165 0,4.44472 0.0454,6.07747 -1.31528,-1.36063 -3.1748,-2.0863 -5.39716,-2.0863 -5.1704,0 -8.9348,3.35622 -8.9348,8.11842 0,4.53543 3.35622,7.75559 8.07306,7.75559 3.58299,0 6.34961,-1.31527 7.52882,-5.2611 z m -1.81417,-3.49228 c 0,3.22016 -2.17701,5.44252 -5.35181,5.44252 -2.85732,0 -4.94362,-1.5874 -4.94362,-4.62614 0,-2.85732 2.35842,-4.89827 5.44252,-4.89827 2.90267,0 4.85291,1.63276 4.85291,4.08189 z" />
      <path
         id="path529"
         d="m 479.71567,245.60899 c -0.18142,-0.0454 -0.31748,-0.0454 -0.4989,-0.0454 -0.81637,0 -1.54204,0.40818 -1.81417,1.36063 -1.72346,6.39495 -2.58519,13.74235 -2.58519,20.81762 0,5.07968 0.40819,9.97795 1.26992,14.15054 0.22677,1.22457 0.90708,1.72347 1.76882,1.72347 0.13606,0 0.31748,0 0.49889,-0.0454 0.95244,-0.22677 1.54205,-0.77102 1.54205,-1.81417 0,-0.22677 0,-0.45354 -0.0454,-0.68032 -0.77102,-4.21795 -1.17921,-9.0255 -1.17921,-13.51558 0,-6.62173 0.86173,-13.78771 2.49449,-19.81983 0.0453,-0.22677 0.0907,-0.40819 0.0907,-0.5896 0,-0.86173 -0.63496,-1.40599 -1.54205,-1.54205 z m 27.03117,4.85291 c -3.6737,0.40819 -8.9348,0.63496 -13.74236,0.63496 -1.67811,0 -3.31086,-0.0453 -4.7622,-0.0907 -0.0453,0 -0.0453,0 -0.0907,0 -1.17921,0 -1.81417,0.90709 -1.85952,1.90488 0,1.04315 0.49889,1.95024 1.90488,1.99559 1.49669,0.0454 3.12944,0.0907 4.80755,0.0907 4.94362,0 10.38614,-0.22677 14.1959,-0.68031 1.31527,-0.13607 1.76882,-0.9978 1.76882,-2.04095 0,-0.0454 0,-0.0907 0,-0.13606 -0.13607,-1.04315 -0.72567,-1.67811 -1.85953,-1.67811 -0.13606,0 -0.22677,0 -0.36283,0 z m -15.69259,14.60409 c -0.36284,-0.31748 -0.77103,-0.4989 -1.17921,-0.4989 -0.4989,0 -1.04315,0.22677 -1.54205,0.68031 -2.31307,2.17701 -3.44693,4.7622 -3.44693,7.52882 0,5.71464 4.44472,8.07306 12.78992,8.07306 4.17259,0 8.16377,-0.31748 11.51999,-0.99779 0.99779,-0.18142 1.54204,-1.04315 1.54204,-1.95024 0,-0.18141 0,-0.31748 -0.0453,-0.49889 -0.18142,-0.90709 -0.86173,-1.4967 -1.76882,-1.4967 -0.18142,0 -0.36283,0 -0.54425,0.0454 -3.08409,0.68031 -7.25669,1.0885 -11.15716,1.0885 -6.3496,0 -8.79873,-1.45134 -8.79873,-4.2633 0,-1.72347 0.72567,-3.44693 2.63055,-5.2611 0.36283,-0.36284 0.5896,-0.77103 0.5896,-1.22457 0,-0.40819 -0.18141,-0.81638 -0.5896,-1.22456 z" />
      <path
         id="path531"
         d="m 570.94509,269.51071 c -0.13606,-1.17921 -0.27213,-2.44913 -0.45354,-3.71906 -0.4989,-3.94582 -0.72567,-6.16818 -0.77103,-7.89164 4.85291,-0.0907 9.9326,-0.58961 13.33417,-1.22457 1.17921,-0.22677 1.63275,-0.95244 1.63275,-1.81417 0,-0.18142 0,-0.31748 -0.0453,-0.4989 -0.13606,-0.95244 -0.81638,-1.49669 -1.72347,-1.49669 -0.18141,0 -0.31748,0 -0.49889,0.0454 -3.53764,0.68032 -8.20913,1.17921 -12.88062,1.31528 -0.0907,-2.31307 -0.0907,-4.85291 -0.0907,-7.75559 0,-1.26992 -0.63496,-1.85952 -1.85953,-1.85952 -1.13386,0 -1.90488,0.49889 -1.90488,1.85952 0,4.53543 0.13606,8.20913 0.36283,11.6107 0.18142,2.5852 0.45355,5.30646 0.81638,8.07307 0.0907,0.77102 0.18142,1.5874 0.27213,2.35842 -2.0863,-0.40819 -4.08189,-0.5896 -6.03212,-0.5896 -6.89386,0 -11.24787,3.26551 -11.24787,7.98235 0,4.6715 4.67149,7.66488 10.43149,7.66488 6.75779,0 11.1118,-2.35842 11.15716,-7.39275 0,-0.77102 0,-1.54205 -0.0454,-2.40378 3.08409,1.31528 6.80315,3.90047 9.79653,6.8485 0.54425,0.4989 1.13386,0.72567 1.67811,0.72567 0.54425,0 1.0885,-0.27213 1.45134,-0.68031 0.36283,-0.45355 0.54425,-0.95244 0.54425,-1.45134 0,-0.63496 -0.27213,-1.26992 -0.86173,-1.72347 -3.44693,-3.12944 -7.61952,-5.80535 -11.42929,-7.34739 -0.54425,-0.22677 -1.0885,-0.45355 -1.63275,-0.63496 z m -3.40157,2.81196 c 0.0907,0.9978 0.13606,1.95024 0.13606,2.85733 0,3.44692 -3.12945,4.80755 -7.52881,4.80755 -4.03654,0 -6.53102,-1.81417 -6.53102,-4.12724 0,-2.6759 2.63055,-4.44472 7.30204,-4.44472 2.26771,0 4.49007,0.31748 6.62173,0.90708 z" />
      <path
         id="path533"
         d="m 652.24191,267.06158 c -2.6759,-1.13386 -6.71243,-2.13166 -10.93038,-2.13166 -8.52661,0 -14.01448,3.40158 -14.01448,9.07086 0,5.89606 5.39716,9.38834 15.10298,9.38834 4.94362,0 9.56976,-0.63496 13.28881,-1.76881 0.9978,-0.27213 1.49669,-0.90709 1.49669,-1.76882 0,-0.22677 -0.0453,-0.4989 -0.13606,-0.77103 -0.18142,-0.77102 -0.81638,-1.17921 -1.63275,-1.17921 -0.22678,0 -0.4989,0.0454 -0.77103,0.0907 -3.49228,0.9978 -8.02771,1.67811 -12.38172,1.67811 -6.66708,0 -11.06645,-1.95023 -11.06645,-5.62393 0,-3.99118 4.17259,-5.89606 10.47684,-5.89606 5.12504,0 10.0233,1.22456 13.01669,2.81197 0.63496,0.36283 1.22456,0.54425 1.76881,0.54425 0.45355,0 0.86174,-0.13607 1.26993,-0.4989 0.36283,-0.40819 0.5896,-0.90709 0.5896,-1.45134 0,-0.4989 -0.18142,-0.99779 -0.63496,-1.45134 -3.85511,-3.67369 -7.3474,-7.75558 -9.75117,-11.92818 3.40157,-0.54425 7.34739,-1.31527 10.52219,-2.31307 0.81638,-0.22677 1.22457,-0.90708 1.22457,-1.63275 0,-0.22677 -0.0453,-0.45354 -0.0907,-0.68032 -0.31748,-0.81637 -0.86173,-1.22456 -1.5874,-1.22456 -0.22677,0 -0.4989,0.0454 -0.77102,0.13606 -3.22016,0.95244 -7.21134,1.76882 -11.20251,2.31307 -1.17922,-2.22236 -2.13166,-4.49008 -2.90268,-6.8485 -0.31748,-0.99779 -0.90709,-1.36063 -1.67811,-1.36063 -0.22677,0 -0.45354,0.0454 -0.68031,0.0907 -0.81638,0.18142 -1.40599,0.68031 -1.40599,1.49669 0,0.22677 0.0454,0.4989 0.13607,0.77103 0.77102,2.13165 1.72346,4.35401 2.85732,6.39495 -4.58079,0.54425 -9.97795,0.77102 -14.92157,0.77102 -1.04315,0 -1.72346,0.72567 -1.72346,1.76882 0,1.17921 0.68031,1.90488 1.76882,1.90488 5.75999,0 11.56534,-0.40819 16.78109,-1.0885 2.49448,4.21795 5.30645,7.57417 8.11842,10.15936 z" />
      <path
         id="path535"
         d="m 724.78536,263.70536 c -7.66488,2.26771 -11.1118,6.16818 -11.1118,10.52219 0,4.6715 3.58299,7.75559 9.70582,8.61732 1.67811,0.22677 3.80976,0.36284 5.94141,0.36284 0.31748,0 0.63496,0 0.95244,0 1.26992,-0.0454 1.99559,-0.81638 1.99559,-2.13166 0,-1.22456 -0.77102,-1.81417 -2.04094,-1.81417 -2.35843,0 -4.6715,-0.13606 -6.30425,-0.36283 -4.26331,-0.58961 -6.3496,-2.40378 -6.3496,-5.17039 0,-3.22016 2.6759,-5.85071 6.89385,-7.66488 3.85512,-1.67811 8.34519,-2.44913 12.92598,-2.72126 0.95244,-0.0453 1.63275,-0.77102 1.63275,-1.81417 0,0 0,-0.0453 0,-0.0907 -0.0907,-0.99779 -0.68031,-1.67811 -1.81417,-1.67811 -0.0907,0 -0.13606,0 -0.22677,0 -7.21134,0.45355 -14.55873,1.22457 -20.77227,1.99559 -2.35843,0.27213 -5.12504,0.77102 -7.3474,1.36063 l -0.0453,-0.27212 c 1.99558,-0.72567 3.90047,-1.4967 5.44251,-2.22237 5.2611,-2.53984 10.93039,-6.07747 15.42046,-10.20471 0.63496,-0.58961 0.90709,-1.26992 0.90709,-1.95024 0,-0.40819 -0.0907,-0.81638 -0.31748,-1.17921 -0.4989,-0.81638 -1.13386,-1.0885 -2.22236,-1.0885 -0.13606,0 -0.31748,0 -0.4989,0 -2.31307,0.18141 -5.30645,0.36283 -8.52661,0.49889 -3.40157,0.13607 -7.21133,0.22678 -10.97574,0.22678 -1.0885,0.0453 -1.72346,0.68031 -1.72346,1.81417 0,1.13385 0.72567,1.72346 1.63275,1.72346 5.21575,0 11.65606,-0.31748 17.46141,-0.90709 -5.35181,4.26331 -12.6085,8.75338 -19.457,11.88283 -1.72346,0.77102 -3.31086,1.36063 -4.94361,1.81417 -0.95244,0.27213 -1.40599,0.90709 -1.40599,1.72347 0,0.0907 0,0.22677 0.0454,0.31748 0.0907,0.81637 0.68031,1.54204 1.67811,1.54204 0.0907,0 0.22677,0 0.36283,-0.0453 5.30645,-0.81638 11.0211,-1.5874 16.41826,-2.22236 2.53984,-0.27213 4.85291,-0.68032 6.62173,-1.13386 z" />
      <path
         id="path537"
         d="m 27.249837,343.10572 c 2.177007,-3.49228 4.127242,-7.4381 5.805351,-11.79211 6.440311,-0.13607 13.198102,-0.72567 17.960303,-1.40599 0.997795,-0.13606 1.587401,-0.77102 1.587401,-1.81417 0,-0.0907 0,-0.22677 0,-0.31748 -0.136063,-0.90709 -0.816377,-1.45134 -1.678109,-1.45134 -0.136063,0 -0.272126,0 -0.408189,0.0454 -4.490076,0.5896 -10.567552,1.13386 -16.191485,1.31527 0.544251,-1.5874 1.088503,-3.40157 1.5874,-5.17039 0.04535,-0.22677 0.09071,-0.45354 0.09071,-0.68031 0,-0.81638 -0.498898,-1.40599 -1.451338,-1.54205 -0.136063,-0.0453 -0.31748,-0.0453 -0.453543,-0.0453 -0.907086,0 -1.632755,0.40819 -1.814172,1.54204 -0.544252,2.0863 -1.088503,4.08189 -1.723464,5.98677 -3.764407,0 -7.029916,-0.0907 -9.796529,-0.22677 -0.04535,0 -0.136063,0 -0.181417,0 -0.907086,0 -1.542046,0.68031 -1.5874,1.67811 0,0.0453 0,0.0907 0,0.13606 0,0.9978 0.544251,1.72346 1.542046,1.81417 1.859526,0.13607 4.21795,0.18142 6.621728,0.18142 0.725669,0 1.451338,0 2.177006,0 -1.859526,4.71685 -3.991178,9.11622 -6.757791,13.65165 -0.31748,0.49889 -0.453543,0.99779 -0.453543,1.40598 0,0.72567 0.408189,1.26992 0.952441,1.5874 0.31748,0.18142 0.63496,0.27213 1.043149,0.27213 0.63496,0 1.360629,-0.31748 2.267715,-0.9978 3.90047,-3.12945 9.660466,-5.2611 14.740148,-5.2611 6.032122,0 9.161569,1.99559 9.161569,5.71464 0,4.76221 -5.125036,7.25669 -12.427079,7.25669 -3.855116,0 -7.891648,-0.5896 -10.204718,-1.31527 -0.272126,-0.0907 -0.498897,-0.13607 -0.725669,-0.13607 -0.861731,0 -1.451337,0.4989 -1.723463,1.36063 -0.09071,0.22677 -0.136063,0.45355 -0.136063,0.68032 0,0.77102 0.498897,1.49669 1.405983,1.76882 2.721258,0.86173 6.893854,1.36062 11.474639,1.36062 11.429284,0 16.23684,-4.89826 16.23684,-10.97574 0,-5.2611 -4.172596,-9.0255 -12.608496,-9.0255 -5.442516,0 -10.522198,1.95023 -14.105188,4.49007 z" />
      <path
         id="path539"
         d="m 133.40081,353.3558 c -1.0885,-4.44472 -3.7644,-10.61291 -6.07747,-14.37732 -0.31748,-0.5896 -0.95244,-0.90708 -1.63276,-0.90708 -0.22677,0 -0.4989,0.0454 -0.77102,0.13606 -0.63496,0.31748 -1.08851,0.90709 -1.08851,1.63276 0,0.27212 0.0907,0.54425 0.22678,0.81637 2.26771,3.58299 4.53543,9.38834 5.66928,13.60629 0.22678,0.9978 0.95244,1.54205 1.76882,1.54205 0.18142,0 0.36284,-0.0454 0.58961,-0.0907 0.86173,-0.27213 1.36063,-0.95244 1.36063,-1.81417 0,-0.18142 0,-0.36284 -0.0454,-0.54425 z m -33.38076,-14.96692 c -0.181421,-0.0454 -0.362838,-0.0454 -0.544255,-0.0454 -0.816378,0 -1.496692,0.45355 -1.678109,1.40599 -0.952441,4.85291 -2.675904,10.0233 -4.580785,13.87841 -0.181417,0.36284 -0.272126,0.72567 -0.272126,1.04315 0,0.77102 0.408189,1.31528 1.088504,1.67811 0.272125,0.0907 0.589606,0.18142 0.907086,0.18142 0.725669,0 1.405983,-0.40819 1.90488,-1.31528 1.950235,-3.94582 3.582995,-9.5244 4.671495,-14.55873 0.0453,-0.18141 0.0453,-0.36283 0.0453,-0.54425 0,-0.90709 -0.5896,-1.54205 -1.54204,-1.72346 z m 17.00786,-10.5222 c -5.12504,1.36063 -8.9348,4.35401 -8.9348,7.84629 0,2.76662 1.17921,4.44473 4.80756,7.66488 3.12944,2.81197 4.2633,4.89827 4.2633,7.16598 0,2.76661 -2.04094,4.49008 -5.62393,4.49008 -2.35842,0 -5.03433,-1.22457 -6.8485,-2.94803 -0.40819,-0.36284 -0.81638,-0.4989 -1.22457,-0.4989 -0.63496,0 -1.17921,0.31748 -1.54204,0.68031 -0.31748,0.36284 -0.4989,0.81638 -0.4989,1.26992 0,0.4989 0.22677,1.04315 0.72567,1.4967 2.63055,2.40377 6.21354,3.71905 9.56976,3.71905 5.71464,0 9.34298,-3.03874 9.34298,-8.11842 0,-3.35622 -1.5874,-6.16819 -4.89826,-9.07086 -3.62835,-3.1748 -4.44472,-4.12724 -4.44472,-5.98677 0,-2.6759 5.03432,-5.2611 10.43149,-6.71244 0.90708,-0.22677 1.49669,-0.90708 1.49669,-1.90488 0,-0.0907 0,-0.18141 0,-0.22677 -0.0907,-1.13386 -0.72567,-1.76882 -1.85953,-1.85952 -6.8485,-0.58961 -14.15054,-1.95024 -18.4592,-3.31087 -0.27213,-0.0907 -0.54425,-0.13606 -0.77102,-0.13606 -0.68032,0 -1.22457,0.36283 -1.54205,1.13386 -0.0907,0.22677 -0.13606,0.49889 -0.13606,0.77102 0,0.72567 0.36283,1.36063 1.0885,1.63275 4.12724,1.31528 10.11401,2.5852 15.01228,2.63055 z" />
      <path
         id="path541"
         d="m 192.24725,348.95643 v 7.30204 c 0,1.26992 0.81638,1.81417 2.04094,1.81417 1.22457,0 2.0863,-0.54425 2.0863,-1.85952 v -7.25669 h 4.26331 c 1.17921,0 1.72346,-0.81638 1.72346,-1.90488 0,-1.04315 -0.54425,-1.81417 -1.72346,-1.81417 h -4.26331 V 324.3744 c 0,-1.81417 -0.99779,-2.53984 -2.53984,-2.53984 -1.90488,0 -2.6759,0.72567 -3.76441,2.22236 l -13.83306,18.86739 c -0.95244,1.26992 -1.40598,2.13165 -1.40598,3.62834 0,1.5874 0.99779,2.40378 2.49449,2.40378 z m -3.12945,-17.50676 c 1.40599,-1.95024 2.44914,-3.62834 3.49229,-5.35181 -0.22678,2.49449 -0.36284,5.35181 -0.36284,7.48346 v 11.65606 h -10.47684 c -0.77103,0 -1.85953,0 -2.85732,0.0907 0.68031,-0.72567 1.26992,-1.36063 1.76881,-2.04095 z" />
      <path
         id="path543"
         d="m 264.83603,318.43298 c -12.01889,0 -21.72471,9.70583 -21.72471,21.72472 0,12.01889 9.70582,21.72471 21.72471,21.72471 12.01889,0 21.72472,-9.70582 21.72472,-21.72471 0,-12.01889 -9.70583,-21.72472 -21.72472,-21.72472 z m 0,2.04095 c 10.88504,0 19.68377,8.79873 19.68377,19.68377 0,10.88503 -8.79873,19.68376 -19.68377,19.68376 -10.88503,0 -19.68376,-8.79873 -19.68376,-19.68376 0,-10.88504 8.79873,-19.68377 19.68376,-19.68377 z" />
      <path
         id="path545"
         d="m 357.92498,342.47076 c 1.13386,0 1.76882,-0.72566 1.76882,-1.95023 0,-1.17921 -0.63496,-2.04094 -1.81418,-2.04094 h -34.42391 c -1.17921,0 -1.81417,0.86173 -1.81417,2.04094 0,1.22457 0.63496,1.95023 1.76882,1.95023 z" />
      <path
         id="path547"
         d="m 398.85648,325.87109 c 0,4.85291 0.0454,10.15936 0.31748,13.78771 0.45354,6.57637 1.85952,11.51999 3.80976,14.46802 1.54204,2.31307 3.58299,3.1748 5.48787,3.1748 1.72346,0 3.49228,-0.77102 5.03432,-2.6759 1.4967,-1.95024 2.67591,-5.03433 3.31087,-9.25228 0.0453,-0.13606 0.0453,-0.27213 0.0453,-0.40819 0,-1.0885 -0.68031,-1.63275 -1.72346,-1.76882 -0.13606,-0.0454 -0.31748,-0.0454 -0.45354,-0.0454 -0.95244,0 -1.45134,0.4989 -1.63276,1.63275 -0.45354,3.12945 -1.26992,5.48787 -2.22236,6.89386 -0.68031,1.04315 -1.54205,1.40598 -2.58519,1.40598 -0.9978,0 -2.17701,-0.86173 -2.76662,-2.04094 -1.36063,-2.72126 -2.13165,-6.21354 -2.58519,-11.65606 -0.13606,-2.0863 -0.18142,-4.80755 -0.18142,-7.71023 0,-1.90488 0,-3.90047 0,-5.80535 0,-1.13386 -0.36283,-1.90488 -1.81417,-1.90488 -1.26992,0 -2.04094,0.72567 -2.04094,1.90488 z m 25.98801,0.72567 c -0.58961,0.27212 -0.95244,0.86173 -0.95244,1.49669 0,0.36284 0.13606,0.77102 0.36283,1.13386 4.08189,5.75999 6.8485,13.92377 7.48346,21.54329 0.0907,1.13386 0.81638,1.76882 1.85953,1.76882 0.13606,0 0.31748,0 0.4989,-0.0453 1.13386,-0.22678 1.5874,-0.9978 1.5874,-2.17701 0,-0.0907 0,-0.18142 0,-0.31748 -0.63496,-7.75559 -3.85512,-16.91716 -8.20913,-22.81322 -0.40819,-0.63496 -0.95244,-0.90708 -1.54205,-0.90708 -0.36283,0 -0.72567,0.0907 -1.0885,0.31748 z" />
      <path
         id="path549"
         d="m 482.14886,324.69188 c 5.35181,1.22456 13.87842,2.26771 19.86518,2.40378 0.0454,0 0.0907,0 0.13607,0 1.17921,0 1.90488,-0.63496 1.95023,-1.72347 0,-0.0453 0,-0.0907 0,-0.0907 0,-1.13385 -0.68031,-1.95023 -1.85953,-1.99558 -5.98676,-0.27213 -13.65164,-1.13386 -19.18486,-2.40378 -0.13607,0 -0.27213,0 -0.36284,0 -0.95244,0 -1.67811,0.49889 -1.90488,1.49669 -0.0453,0.22677 -0.0907,0.40819 -0.0907,0.5896 0,0.86174 0.4989,1.4967 1.45134,1.72347 z m 25.48912,17.14392 c 0,-5.71464 -4.21795,-9.79652 -12.88062,-9.79652 -5.21575,0 -12.33637,1.26992 -17.46141,2.85732 -0.86173,0.22677 -1.40598,0.95244 -1.40598,1.85952 0,0.22677 0.0453,0.45355 0.0907,0.68032 0.31748,0.90708 0.9978,1.36063 1.76882,1.36063 0.22677,0 0.45355,-0.0454 0.68032,-0.0907 5.12503,-1.5874 11.65605,-2.99339 16.41825,-2.99339 6.44031,0 8.84409,2.5852 8.84409,6.30425 0,3.94583 -2.04094,7.39275 -6.44031,9.88724 -3.12944,1.76882 -8.02771,3.12945 -12.1096,3.6737 -1.04315,0.18141 -1.63275,0.90708 -1.63275,1.85952 0,0.13607 0,0.31748 0.0453,0.45355 0.22677,0.99779 0.86173,1.63275 1.90488,1.63275 0.13607,0 0.27213,0 0.40819,-0.0453 4.35402,-0.54425 9.4337,-2.04095 12.97133,-3.99118 5.89606,-3.26551 8.79874,-7.89165 8.79874,-13.65165 z" />
      <path
         id="path551"
         d="m 558.09388,321.10889 c -0.0454,0 -0.0907,0 -0.0907,0 -1.17921,0 -1.90488,0.72567 -1.95024,1.90488 -0.31748,6.66708 -0.54425,15.05763 -0.54425,22.08754 0,5.76 0.95244,8.70803 3.03874,10.74897 2.22236,2.13166 5.39716,3.12945 9.66047,3.12945 4.67149,0 8.93479,-1.54205 12.29101,-4.80756 2.72126,-2.63055 4.62614,-6.30424 6.03212,-10.88503 0.0907,-0.27212 0.13607,-0.54425 0.13607,-0.77102 0,-0.90709 -0.58961,-1.63276 -1.40599,-1.85953 -0.22677,-0.0907 -0.49889,-0.13606 -0.72567,-0.13606 -0.77102,0 -1.40598,0.4989 -1.72346,1.54205 -1.0885,3.7644 -2.76661,6.9392 -4.80755,9.0255 -2.67591,2.76661 -6.21354,3.90047 -9.70583,3.90047 -3.12944,0 -5.39716,-0.4989 -6.89385,-1.90488 -1.45134,-1.40598 -1.99559,-3.76441 -1.99559,-8.02771 0,-7.25669 0.36284,-15.2844 0.58961,-21.95148 0,-0.0454 0,-0.0907 0,-0.13607 0,-1.13385 -0.63496,-1.81417 -1.90488,-1.85952 z" />
      <path
         id="path553"
         d="m 633.31323,342.87895 c 0.63496,-1.0885 1.31527,-2.6759 1.90488,-4.12724 1.95023,-4.94362 4.08188,-10.11401 6.30424,-15.64723 0.13607,-0.31748 0.18142,-0.68032 0.18142,-0.95244 0,-0.77103 -0.40819,-1.36063 -1.22456,-1.5874 -0.27213,-0.0907 -0.54426,-0.13607 -0.81638,-0.13607 -0.77102,0 -1.40599,0.45355 -1.72347,1.31528 -4.21795,10.61291 -8.84408,22.99463 -12.88062,34.28785 -0.13606,0.31748 -0.18141,0.63496 -0.18141,0.95244 0,0.86173 0.49889,1.49669 1.36062,1.72346 0.27213,0.0907 0.54426,0.13607 0.77103,0.13607 0.77102,0 1.31527,-0.45355 1.72346,-1.45134 1.45134,-4.12724 3.49228,-8.61732 5.21575,-11.24787 2.26771,-3.49228 5.3518,-5.57858 8.20912,-5.57858 1.36063,0 2.04095,0.58961 2.44914,1.5874 0.54425,1.36063 0.68031,2.90268 0.77102,6.39496 0.13606,4.53543 0.81638,6.62173 1.95024,7.937 1.17921,1.40599 3.08409,2.0863 5.53322,2.0863 2.72126,0 5.2611,-0.95244 7.07527,-3.35622 1.85953,-2.31307 3.26551,-5.71464 3.85512,-9.97794 0.0453,-0.13607 0.0453,-0.31748 0.0453,-0.45355 0,-0.99779 -0.54425,-1.67811 -1.54205,-1.85952 -0.13606,-0.0454 -0.31748,-0.0454 -0.45354,-0.0454 -0.95244,0 -1.5874,0.58961 -1.76882,1.63276 -0.49889,3.31086 -1.49669,6.07747 -2.76661,7.89165 -0.99779,1.45133 -2.53984,2.22236 -4.17259,2.22236 -1.17922,0 -2.35843,-0.36284 -2.99339,-1.17921 -0.5896,-0.81638 -0.90708,-2.26772 -1.04315,-6.34961 -0.13606,-4.53543 -0.54425,-6.21354 -1.36063,-7.66487 -0.77102,-1.36063 -2.177,-2.44914 -4.53543,-2.44914 -3.49228,0 -6.80314,2.13166 -9.56975,5.98677 z" />
      <path
         id="path555"
         d="m 722.44288,326.18857 c -6.66708,0 -14.7855,1.31528 -21.54329,3.53764 -0.95244,0.36283 -1.49669,1.04314 -1.49669,1.95023 0,0.22677 0.0453,0.40819 0.0907,0.63496 0.22677,0.90709 0.90708,1.45134 1.81417,1.45134 0.27213,0 0.58961,-0.0454 0.90709,-0.18142 6.75779,-2.31307 14.42266,-3.58299 20.40943,-3.58299 6.89386,0 10.47685,3.6737 10.47685,9.02551 0,4.7622 -2.31307,8.39054 -6.80315,10.43149 -3.85512,1.76881 -10.06865,2.63055 -15.55652,2.63055 -1.26993,0 -1.95024,0.77102 -1.95024,1.99559 0,0.0453 0,0.0907 0,0.13606 0.0453,1.22456 0.86173,1.90488 2.31307,1.90488 5.80535,0 12.47243,-1.0885 16.69038,-2.94803 6.16819,-2.72126 9.29763,-7.84629 9.29763,-14.15054 0,-7.52882 -4.94361,-12.83527 -14.64944,-12.83527 z" />
    </g>
  </g>
</svg>
